<svg width="20" height="16" viewBox="0 0 20 16" fill="none" xmlns="http://www.w3.org/2000/svg">
<path d="M2 0.000152588C1.46957 0.000152588 0.960859 0.210866 0.585786 0.585939C0.210714 0.961012 0 1.46972 0 2.00015V6.00015C0.530433 6.00015 1.03914 6.21087 1.41421 6.58594C1.78929 6.96101 2 7.46972 2 8.00015C2 8.53059 1.78929 9.03929 1.41421 9.41437C1.03914 9.78944 0.530433 10.0002 0 10.0002V14.0002C0 14.5306 0.210714 15.0393 0.585786 15.4144C0.960859 15.7894 1.46957 16.0002 2 16.0002H18C18.5304 16.0002 19.0391 15.7894 19.4142 15.4144C19.7893 15.0393 20 14.5306 20 14.0002V10.0002C19.4696 10.0002 18.9609 9.78944 18.5858 9.41437C18.2107 9.03929 18 8.53059 18 8.00015C18 7.46972 18.2107 6.96101 18.5858 6.58594C18.9609 6.21087 19.4696 6.00015 20 6.00015V2.00015C20 1.46972 19.7893 0.961012 19.4142 0.585939C19.0391 0.210866 18.5304 0.000152588 18 0.000152588H2ZM13.5 3.00015L15 4.50015L6.5 13.0002L5 11.5002L13.5 3.00015ZM6.81 3.04015C7.79 3.04015 8.58 3.83015 8.58 4.81015C8.58 5.27959 8.39352 5.72979 8.06158 6.06173C7.72964 6.39367 7.27943 6.58015 6.81 6.58015C5.83 6.58015 5.04 5.79015 5.04 4.81015C5.04 4.34072 5.22648 3.89051 5.55842 3.55857C5.89036 3.22663 6.34057 3.04015 6.81 3.04015ZM13.19 9.42015C14.17 9.42015 14.96 10.2102 14.96 11.1902C14.96 11.6596 14.7735 12.1098 14.4416 12.4417C14.1096 12.7737 13.6594 12.9602 13.19 12.9602C12.21 12.9602 11.42 12.1702 11.42 11.1902C11.42 10.7207 11.6065 10.2705 11.9384 9.93857C12.2704 9.60663 12.7206 9.42015 13.19 9.42015Z" fill="black"/>
</svg>
