<svg width="20" height="20" viewBox="0 0 20 20" fill="none" xmlns="http://www.w3.org/2000/svg">
<path d="M6.0252 12.3812L12.3908 6.025C12.6065 5.84546 12.8815 5.75303 13.1618 5.76582C13.4422 5.77862 13.7076 5.89572 13.906 6.09416C14.1045 6.29259 14.2216 6.55802 14.2344 6.83836C14.2472 7.11869 14.1547 7.39369 13.9752 7.60937L7.60957 13.975C7.39887 14.184 7.11414 14.3012 6.81739 14.3012C6.52063 14.3012 6.2359 14.184 6.0252 13.975C5.92032 13.8705 5.8371 13.7463 5.78032 13.6095C5.72354 13.4728 5.69431 13.3262 5.69431 13.1781C5.69431 13.0301 5.72354 12.8834 5.78032 12.7467C5.8371 12.61 5.92032 12.4858 6.0252 12.3812ZM10.7971 13.975L8.14395 16.6281C7.50664 17.2387 6.65552 17.5753 5.77299 17.5659C4.89045 17.5564 4.04674 17.2016 3.42266 16.5775C2.79858 15.9535 2.44379 15.1097 2.43434 14.2272C2.42488 13.3447 2.76151 12.4936 3.37207 11.8562L6.0252 9.20312C6.13008 9.0986 6.21329 8.97441 6.27008 8.83767C6.32686 8.70092 6.35609 8.55431 6.35609 8.40625C6.35609 8.25818 6.32686 8.11157 6.27008 7.97482C6.21329 7.83808 6.13008 7.71389 6.0252 7.60937C5.81174 7.40205 5.52589 7.28608 5.22832 7.28608C4.93076 7.28608 4.6449 7.40205 4.43145 7.60937L1.77832 10.2625C0.722844 11.318 0.129883 12.7495 0.129883 14.2422C0.129883 15.7349 0.722844 17.1664 1.77832 18.2219C2.8338 19.2773 4.26534 19.8703 5.75801 19.8703C7.25068 19.8703 8.68222 19.2773 9.7377 18.2219L12.3814 15.5687C12.4863 15.4642 12.5695 15.34 12.6263 15.2033C12.6831 15.0665 12.7123 14.9199 12.7123 14.7719C12.7123 14.6238 12.6831 14.4772 12.6263 14.3404C12.5695 14.2037 12.4863 14.0795 12.3814 13.975C12.2777 13.8704 12.1543 13.7874 12.0184 13.7307C11.8824 13.6741 11.7366 13.6449 11.5893 13.6449C11.442 13.6449 11.2961 13.6741 11.1602 13.7307C11.0242 13.7874 10.9008 13.8704 10.7971 13.975ZM18.2221 1.77812C17.1658 0.72417 15.7346 0.132263 14.2424 0.132263C12.7502 0.132263 11.319 0.72417 10.2627 1.77812L7.60957 4.43125C7.40225 4.6447 7.28628 4.93055 7.28628 5.22812C7.28628 5.52569 7.40225 5.81154 7.60957 6.025C7.71409 6.12988 7.83828 6.21309 7.97503 6.26987C8.11177 6.32665 8.25838 6.35588 8.40645 6.35588C8.55451 6.35588 8.70112 6.32665 8.83787 6.26987C8.97462 6.21309 9.09881 6.12988 9.20332 6.025L11.8564 3.37187C12.1673 3.04744 12.5397 2.78833 12.952 2.60974C13.3643 2.43115 13.8081 2.33668 14.2574 2.33187C14.7066 2.32705 15.1523 2.41199 15.5684 2.58171C15.9844 2.75142 16.3623 3.00249 16.68 3.32019C16.9977 3.63789 17.2488 4.01583 17.4185 4.43184C17.5882 4.84785 17.6731 5.29356 17.6683 5.74283C17.6635 6.19211 17.569 6.63589 17.3905 7.04817C17.2119 7.46045 16.9528 7.83292 16.6283 8.14375L13.9752 10.7969C13.8218 10.9559 13.7181 11.1563 13.677 11.3734C13.6358 11.5905 13.659 11.8149 13.7437 12.019C13.8283 12.2231 13.9707 12.3981 14.1534 12.5224C14.3361 12.6467 14.5511 12.715 14.7721 12.7187C14.9208 12.7195 15.0682 12.6899 15.2052 12.6319C15.3422 12.5739 15.466 12.4886 15.5689 12.3812L18.2221 9.7375C18.7451 9.21508 19.16 8.59471 19.443 7.91185C19.7261 7.22898 19.8718 6.49702 19.8718 5.75781C19.8718 5.0186 19.7261 4.28663 19.443 3.60377C19.16 2.9209 18.7451 2.30053 18.2221 1.77812Z" fill="#27272A"/>
</svg>
