
<svg width="20" height="20" viewBox="0 0 20 20" fill="none" xmlns="http://www.w3.org/2000/svg">

<g transform="translate(0.000000,512.000000) scale(0.100000,-0.100000)"
fill="#000000" stroke="none">
<path d="M1535 4786 c-73 -33 -95 -83 -95 -212 l0 -94 -348 0 c-383 0 -415 -4
-523 -61 -70 -38 -157 -126 -193 -197 -50 -99 -56 -144 -56 -434 l0 -268 2240
0 2240 0 0 268 c0 290 -6 335 -56 434 -36 71 -123 159 -193 197 -108 57 -140
61 -522 61 l-347 0 -4 109 c-3 118 -12 141 -72 185 -39 29 -133 29 -172 0 -60
-44 -69 -67 -72 -185 l-4 -109 -798 0 -798 0 -4 109 c-3 118 -12 141 -70 184
-34 25 -113 32 -153 13z"/>
<path d="M320 1972 c0 -1070 2 -1235 15 -1287 45 -172 179 -305 352 -350 86
-23 3660 -23 3746 0 173 45 307 178 352 350 13 52 15 217 15 1287 l0 1228
-2240 0 -2240 0 0 -1228z m3116 572 c19 -9 44 -30 56 -47 26 -37 35 -116 17
-158 -9 -22 -180 -176 -568 -508 -654 -560 -627 -539 -668 -547 -82 -16 -89
-11 -375 274 -284 283 -308 313 -294 384 17 89 96 146 185 133 44 -7 56 -17
253 -212 l207 -206 513 440 c282 242 522 445 533 451 29 17 102 14 141 -4z"/>
</g>
</svg>
