<svg width="21" height="20" viewBox="0 0 21 20" fill="none" xmlns="http://www.w3.org/2000/svg">
<path d="M0.583313 6.20833V16.2292C0.583313 17.163 0.954257 18.0585 1.61454 18.7188C2.27483 19.3791 3.17036 19.75 4.10415 19.75H16.5625C17.4963 19.75 18.3918 19.3791 19.0521 18.7188C19.7124 18.0585 20.0833 17.163 20.0833 16.2292V6.20833H0.583313ZM15.4791 13.25C15.8383 13.25 16.1827 13.3927 16.4367 13.6466C16.6906 13.9006 16.8333 14.245 16.8333 14.6042C16.8333 14.9633 16.6906 15.3078 16.4367 15.5617C16.1827 15.8157 15.8383 15.9583 15.4791 15.9583C15.12 15.9583 14.7756 15.8157 14.5216 15.5617C14.2677 15.3078 14.125 14.9633 14.125 14.6042C14.125 14.245 14.2677 13.9006 14.5216 13.6466C14.7756 13.3927 15.12 13.25 15.4791 13.25ZM10.3333 13.25C10.6925 13.25 11.0369 13.3927 11.2909 13.6466C11.5448 13.9006 11.6875 14.245 11.6875 14.6042C11.6875 14.9633 11.5448 15.3078 11.2909 15.5617C11.0369 15.8157 10.6925 15.9583 10.3333 15.9583C9.97417 15.9583 9.62973 15.8157 9.37577 15.5617C9.12182 15.3078 8.97915 14.9633 8.97915 14.6042C8.97915 14.245 9.12182 13.9006 9.37577 13.6466C9.62973 13.3927 9.97417 13.25 10.3333 13.25ZM15.4791 8.375C15.8383 8.375 16.1827 8.51767 16.4367 8.77163C16.6906 9.02558 16.8333 9.37002 16.8333 9.72917C16.8333 10.0883 16.6906 10.4328 16.4367 10.6867C16.1827 10.9407 15.8383 11.0833 15.4791 11.0833C15.12 11.0833 14.7756 10.9407 14.5216 10.6867C14.2677 10.4328 14.125 10.0883 14.125 9.72917C14.125 9.37002 14.2677 9.02558 14.5216 8.77163C14.7756 8.51767 15.12 8.375 15.4791 8.375ZM10.3333 8.375C10.6925 8.375 11.0369 8.51767 11.2909 8.77163C11.5448 9.02558 11.6875 9.37002 11.6875 9.72917C11.6875 10.0883 11.5448 10.4328 11.2909 10.6867C11.0369 10.9407 10.6925 11.0833 10.3333 11.0833C9.97417 11.0833 9.62973 10.9407 9.37577 10.6867C9.12182 10.4328 8.97915 10.0883 8.97915 9.72917C8.97915 9.37002 9.12182 9.02558 9.37577 8.77163C9.62973 8.51767 9.97417 8.375 10.3333 8.375ZM5.18748 8.375C5.54663 8.375 5.89106 8.51767 6.14502 8.77163C6.39898 9.02558 6.54165 9.37002 6.54165 9.72917C6.54165 10.0883 6.39898 10.4328 6.14502 10.6867C5.89106 10.9407 5.54663 11.0833 5.18748 11.0833C4.82833 11.0833 4.48389 10.9407 4.22994 10.6867C3.97598 10.4328 3.83331 10.0883 3.83331 9.72917C3.83331 9.37002 3.97598 9.02558 4.22994 8.77163C4.48389 8.51767 4.82833 8.375 5.18748 8.375ZM4.10415 0.25C3.17036 0.25 2.27483 0.620944 1.61454 1.28123C0.954257 1.94151 0.583313 2.83705 0.583313 3.77083V4.58333H20.0833V3.77083C20.0833 2.83705 19.7124 1.94151 19.0521 1.28123C18.3918 0.620944 17.4963 0.25 16.5625 0.25H4.10415Z" fill="#D4D4D8"/>
</svg>
