<svg width="25" height="24" viewBox="0 0 25 24" fill="none" xmlns="http://www.w3.org/2000/svg">
<path d="M0.666656 1.5C0.666656 1.10218 0.824692 0.720644 1.106 0.43934C1.3873 0.158035 1.76883 0 2.16666 0L9.66666 0C10.0645 0 10.446 0.158035 10.7273 0.43934C11.0086 0.720644 11.1667 1.10218 11.1667 1.5V22.5C11.1667 22.8978 11.0086 23.2794 10.7273 23.5607C10.446 23.842 10.0645 24 9.66666 24H2.16666C1.76883 24 1.3873 23.842 1.106 23.5607C0.824692 23.2794 0.666656 22.8978 0.666656 22.5V1.5ZM14.1667 1.5C14.1667 1.10218 14.3247 0.720644 14.606 0.43934C14.8873 0.158035 15.2688 0 15.6667 0L23.1667 0C23.5645 0 23.946 0.158035 24.2273 0.43934C24.5086 0.720644 24.6667 1.10218 24.6667 1.5V9C24.6667 9.39782 24.5086 9.77936 24.2273 10.0607C23.946 10.342 23.5645 10.5 23.1667 10.5H15.6667C15.2688 10.5 14.8873 10.342 14.606 10.0607C14.3247 9.77936 14.1667 9.39782 14.1667 9V1.5ZM14.1667 15C14.1667 14.6022 14.3247 14.2206 14.606 13.9393C14.8873 13.658 15.2688 13.5 15.6667 13.5H23.1667C23.5645 13.5 23.946 13.658 24.2273 13.9393C24.5086 14.2206 24.6667 14.6022 24.6667 15V22.5C24.6667 22.8978 24.5086 23.2794 24.2273 23.5607C23.946 23.842 23.5645 24 23.1667 24H15.6667C15.2688 24 14.8873 23.842 14.606 23.5607C14.3247 23.2794 14.1667 22.8978 14.1667 22.5V15Z" fill="#D4D4D8"/>
</svg>
