<svg width="36" height="37" viewBox="0 0 36 37" fill="none" xmlns="http://www.w3.org/2000/svg">
<rect x="0.5" y="1" width="35" height="35" rx="17.5" fill="url(#paint0_radial_124_8180)" fill-opacity="0.3"/>
<mask id="mask0_124_8180" style="mask-type:luminance" maskUnits="userSpaceOnUse" x="9" y="7" width="18" height="23">
<path d="M24.5 10.5H11.5C10.9477 10.5 10.5 10.9477 10.5 11.5V27.5C10.5 28.0523 10.9477 28.5 11.5 28.5H24.5C25.0523 28.5 25.5 28.0523 25.5 27.5V11.5C25.5 10.9477 25.0523 10.5 24.5 10.5Z" fill="white" stroke="white" stroke-width="2" stroke-linejoin="round"/>
<path d="M15 8.5V11.5M21 8.5V11.5" stroke="white" stroke-width="2" stroke-linecap="round" stroke-linejoin="round"/>
<path d="M14 16H22M14 20H20M14 24H18" stroke="black" stroke-width="2" stroke-linecap="round" stroke-linejoin="round"/>
</mask>
<g mask="url(#mask0_124_8180)">
<path d="M6 6.5H30V30.5H6V6.5Z" fill="white"/>
</g>
<rect x="0.5" y="1" width="35" height="35" rx="17.5" stroke="#C18F2C"/>
<defs>
<radialGradient id="paint0_radial_124_8180" cx="0" cy="0" r="1" gradientUnits="userSpaceOnUse" gradientTransform="translate(18 18.5) rotate(90) scale(17)">
<stop stop-color="#DBE466"/>
<stop offset="1" stop-color="#BF8D2C"/>
</radialGradient>
</defs>
</svg>
