<svg width="36" height="37" viewBox="0 0 36 37" fill="none" xmlns="http://www.w3.org/2000/svg">
<rect x="0.5" y="1" width="35" height="35" rx="17.5" fill="url(#paint0_radial_124_8181)" fill-opacity="0.3"/>
<path d="M24.72 21.26C25.07 20.41 25.26 19.5 25.26 18.5C25.26 17.78 25.15 17.09 24.96 16.45C24.31 16.6 23.63 16.68 22.92 16.68C21.466 16.6816 20.0329 16.3335 18.7415 15.6652C17.4502 14.9969 16.3384 14.028 15.5 12.84C14.6031 15.0102 12.9111 16.7558 10.77 17.72C10.73 17.97 10.73 18.24 10.73 18.5C10.73 19.4547 10.918 20.4001 11.2834 21.2821C11.6487 22.1642 12.1843 22.9656 12.8593 23.6407C14.2227 25.0041 16.0719 25.77 18 25.77C19.05 25.77 20.06 25.54 20.97 25.13C21.54 26.22 21.8 26.76 21.78 26.76C20.14 27.31 18.87 27.58 18 27.58C15.58 27.58 13.27 26.63 11.57 24.92C10.536 23.8892 9.76737 22.623 9.33 21.23H8V16.68H9.09C9.42024 15.0725 10.1795 13.5844 11.2872 12.3736C12.3949 11.1628 13.8097 10.2744 15.3815 9.80277C16.9534 9.33112 18.6235 9.29378 20.2149 9.69471C21.8062 10.0956 23.2593 10.9199 24.42 12.08C25.6802 13.3353 26.5398 14.9361 26.89 16.68H28V21.23H27.94L24.38 24.5L19.08 23.9V22.23H23.91L24.72 21.26ZM15.27 18.27C15.57 18.27 15.86 18.39 16.07 18.61C16.281 18.8228 16.3995 19.1103 16.3995 19.41C16.3995 19.7097 16.281 19.9972 16.07 20.21C15.86 20.42 15.57 20.54 15.27 20.54C14.64 20.54 14.13 20.04 14.13 19.41C14.13 18.78 14.64 18.27 15.27 18.27ZM20.72 18.27C21.35 18.27 21.85 18.78 21.85 19.41C21.85 20.04 21.35 20.54 20.72 20.54C20.09 20.54 19.58 20.04 19.58 19.41C19.58 19.1077 19.7001 18.8177 19.9139 18.6039C20.1277 18.3901 20.4177 18.27 20.72 18.27Z" fill="white"/>
<rect x="0.5" y="1" width="35" height="35" rx="17.5" stroke="#C18F2C"/>
<defs>
<radialGradient id="paint0_radial_124_8181" cx="0" cy="0" r="1" gradientUnits="userSpaceOnUse" gradientTransform="translate(18 18.5) rotate(90) scale(17)">
<stop stop-color="#DBE466"/>
<stop offset="1" stop-color="#BF8D2C"/>
</radialGradient>
</defs>
</svg>
