<svg width="36" height="37" viewBox="0 0 36 37" fill="none" xmlns="http://www.w3.org/2000/svg">
<rect x="0.5" y="1" width="35" height="35" rx="17.5" fill="url(#paint0_radial_124_8091)" fill-opacity="0.3"/>
<g clip-path="url(#clip0_124_8091)">
<path d="M18 8.5C14.13 8.5 11 11.63 11 15.5C11 17.24 11.5 18.87 12.41 20.34C13.36 21.88 14.61 23.2 15.57 24.74C16.04 25.49 16.38 26.19 16.74 27C17 27.55 17.21 28.5 18 28.5C18.79 28.5 19 27.55 19.25 27C19.62 26.19 19.95 25.49 20.42 24.74C21.38 23.21 22.63 21.89 23.58 20.34C24.5 18.87 25 17.24 25 15.5C25 11.63 21.87 8.5 18 8.5ZM18 18.25C16.62 18.25 15.5 17.13 15.5 15.75C15.5 14.37 16.62 13.25 18 13.25C19.38 13.25 20.5 14.37 20.5 15.75C20.5 17.13 19.38 18.25 18 18.25Z" fill="white"/>
</g>
<rect x="0.5" y="1" width="35" height="35" rx="17.5" stroke="#C18F2C"/>
<defs>
<radialGradient id="paint0_radial_124_8091" cx="0" cy="0" r="1" gradientUnits="userSpaceOnUse" gradientTransform="translate(18 18.5) rotate(90) scale(17)">
<stop stop-color="#DBE466"/>
<stop offset="1" stop-color="#BF8D2C"/>
</radialGradient>
<clipPath id="clip0_124_8091">
<rect width="24" height="24" fill="white" transform="translate(6 6.5)"/>
</clipPath>
</defs>
</svg>
