<svg width="22" height="22" viewBox="0 0 22 22" fill="none" xmlns="http://www.w3.org/2000/svg">
<path d="M11 0.500092C5.20156 0.500092 0.5 5.20165 0.5 11.0001C0.5 16.7985 5.20156 21.5001 11 21.5001C16.7984 21.5001 21.5 16.7985 21.5 11.0001C21.5 5.20165 16.7984 0.500092 11 0.500092ZM15.1367 14.2274L14.4664 15.1415C14.4518 15.1614 14.4335 15.1782 14.4124 15.191C14.3913 15.2038 14.3678 15.2123 14.3434 15.216C14.319 15.2197 14.2942 15.2185 14.2702 15.2126C14.2463 15.2066 14.2237 15.196 14.2039 15.1813L10.3273 12.3548C10.3032 12.3374 10.2836 12.3145 10.2701 12.288C10.2566 12.2615 10.2497 12.2322 10.25 12.2024V5.75009C10.25 5.64697 10.3344 5.56259 10.4375 5.56259H11.5648C11.668 5.56259 11.7523 5.64697 11.7523 5.75009V11.5509L15.0945 13.9673C15.1789 14.0259 15.1977 14.1431 15.1367 14.2274Z" fill="#1F4B3E"/>
</svg>
