<svg width="18" height="18" viewBox="0 0 18 18" fill="none" xmlns="http://www.w3.org/2000/svg">
<path d="M0 5.5V14.75C0 15.612 0.34241 16.4386 0.951903 17.0481C1.5614 17.6576 2.38805 18 3.25 18H14.75C15.612 18 16.4386 17.6576 17.0481 17.0481C17.6576 16.4386 18 15.612 18 14.75V5.5H0ZM13.75 12C14.0815 12 14.3995 12.1317 14.6339 12.3661C14.8683 12.6005 15 12.9185 15 13.25C15 13.5815 14.8683 13.8995 14.6339 14.1339C14.3995 14.3683 14.0815 14.5 13.75 14.5C13.4185 14.5 13.1005 14.3683 12.8661 14.1339C12.6317 13.8995 12.5 13.5815 12.5 13.25C12.5 12.9185 12.6317 12.6005 12.8661 12.3661C13.1005 12.1317 13.4185 12 13.75 12ZM9 12C9.33152 12 9.64946 12.1317 9.88388 12.3661C10.1183 12.6005 10.25 12.9185 10.25 13.25C10.25 13.5815 10.1183 13.8995 9.88388 14.1339C9.64946 14.3683 9.33152 14.5 9 14.5C8.66848 14.5 8.35054 14.3683 8.11612 14.1339C7.8817 13.8995 7.75 13.5815 7.75 13.25C7.75 12.9185 7.8817 12.6005 8.11612 12.3661C8.35054 12.1317 8.66848 12 9 12ZM13.75 7.5C14.0815 7.5 14.3995 7.6317 14.6339 7.86612C14.8683 8.10054 15 8.41848 15 8.75C15 9.08152 14.8683 9.39946 14.6339 9.63388C14.3995 9.8683 14.0815 10 13.75 10C13.4185 10 13.1005 9.8683 12.8661 9.63388C12.6317 9.39946 12.5 9.08152 12.5 8.75C12.5 8.41848 12.6317 8.10054 12.8661 7.86612C13.1005 7.6317 13.4185 7.5 13.75 7.5ZM9 7.5C9.33152 7.5 9.64946 7.6317 9.88388 7.86612C10.1183 8.10054 10.25 8.41848 10.25 8.75C10.25 9.08152 10.1183 9.39946 9.88388 9.63388C9.64946 9.8683 9.33152 10 9 10C8.66848 10 8.35054 9.8683 8.11612 9.63388C7.8817 9.39946 7.75 9.08152 7.75 8.75C7.75 8.41848 7.8817 8.10054 8.11612 7.86612C8.35054 7.6317 8.66848 7.5 9 7.5ZM4.25 7.5C4.58152 7.5 4.89946 7.6317 5.13388 7.86612C5.3683 8.10054 5.5 8.41848 5.5 8.75C5.5 9.08152 5.3683 9.39946 5.13388 9.63388C4.89946 9.8683 4.58152 10 4.25 10C3.91848 10 3.60054 9.8683 3.36612 9.63388C3.1317 9.39946 3 9.08152 3 8.75C3 8.41848 3.1317 8.10054 3.36612 7.86612C3.60054 7.6317 3.91848 7.5 4.25 7.5ZM3.25 0C2.38805 0 1.5614 0.34241 0.951903 0.951903C0.34241 1.5614 0 2.38805 0 3.25V4H18V3.25C18 2.38805 17.6576 1.5614 17.0481 0.951903C16.4386 0.34241 15.612 0 14.75 0H3.25Z" fill="#D4D4D8"/>
</svg>
