<svg width="18" height="20" viewBox="0 0 18 20" fill="none" xmlns="http://www.w3.org/2000/svg">
<path d="M17.7281 16C17.5969 16.2293 17.407 16.4196 17.178 16.5513C16.9491 16.6831 16.6892 16.7517 16.425 16.75H1.575C1.31081 16.7517 1.05092 16.6831 0.821947 16.5513C0.59297 16.4196 0.403133 16.2293 0.271873 16C0.137998 15.7707 0.068234 15.5096 0.0698833 15.244C0.0715326 14.9785 0.144535 14.7183 0.281248 14.4906C0.834373 13.5344 1.5 11.7156 1.5 8.50001V7.75001C1.49876 6.76474 1.69192 5.78892 2.06839 4.87842C2.44486 3.96792 2.99726 3.14064 3.69395 2.44395C4.39063 1.74727 5.21791 1.19487 6.12841 0.818396C7.03891 0.441923 8.01474 0.248772 9 0.250006H9.05625C13.1625 0.278131 16.5 3.68126 16.5 7.83438V8.50001C16.5 11.7156 17.1656 13.5344 17.7187 14.4906C17.8555 14.7183 17.9285 14.9785 17.9301 15.244C17.9318 15.5096 17.862 15.7707 17.7281 16ZM11.9906 18.25H5.99062C5.79171 18.25 5.60095 18.329 5.46029 18.4697C5.31964 18.6103 5.24062 18.8011 5.24062 19C5.24062 19.1989 5.31964 19.3897 5.46029 19.5303C5.60095 19.671 5.79171 19.75 5.99062 19.75H11.9906C12.1895 19.75 12.3803 19.671 12.521 19.5303C12.6616 19.3897 12.7406 19.1989 12.7406 19C12.7406 18.8011 12.6616 18.6103 12.521 18.4697C12.3803 18.329 12.1895 18.25 11.9906 18.25Z" fill="#1F4B3E"/>
</svg>
