<svg width="23" height="22" viewBox="0 0 23 22" fill="none" xmlns="http://www.w3.org/2000/svg">
<path d="M3.06592 0.0517578C-1.52868 4.7873 2.1422 12.0961 6.56251 13.6733C11.7541 15.5257 19.7555 11.3915 22.0166 16.8755C22.152 17.4039 22.142 17.8971 22.0313 18.3506C21.8164 19.2305 21.1941 19.9839 20.3862 20.479C19.5784 20.9741 18.5963 21.1982 17.7202 21.0532C16.8442 20.9081 16.0685 20.4263 15.5612 19.4198C15.221 18.744 15.1939 18.2041 15.3151 17.7924C15.4361 17.3807 15.7124 17.0784 16.0694 16.8989C16.7834 16.5399 17.7812 16.6706 18.3766 17.725C18.7279 18.3473 18.4976 18.7819 18.1993 18.9686C18.0501 19.062 17.8883 19.0896 17.7159 19.0331C17.5435 18.9766 17.3362 18.8268 17.1505 18.4633L16.3712 18.8617C16.6365 19.3811 17.0162 19.7255 17.442 19.8651C17.8678 20.0047 18.315 19.9295 18.6636 19.7113C19.361 19.2747 19.6787 18.2514 19.1382 17.2943C18.3404 15.8812 16.7857 15.5582 15.6754 16.1166C15.1202 16.3958 14.6658 16.8947 14.4742 17.5463C14.2826 18.1978 14.3608 18.9827 14.7789 19.8138C15.4027 21.051 16.4587 21.7323 17.5769 21.9174C18.6949 22.1026 19.8708 21.823 20.8449 21.226C21.8189 20.629 22.6032 19.7021 22.8825 18.5585C23.0784 17.7565 23.0104 16.8588 22.6086 15.9408C22.6091 15.9316 22.6095 15.9222 22.61 15.913C22.5697 15.8347 22.5285 15.7582 22.487 15.683C22.3325 15.3772 22.1406 15.0692 21.9083 14.7631L21.898 14.7705C21.1893 13.8311 20.3464 13.206 19.3844 12.7417C18.0009 12.0739 16.3607 11.7589 14.5856 11.4321C11.0355 10.7785 6.93043 10.0438 3.50697 6.01651L4.17353 5.44965C7.40912 9.2559 11.1891 9.91487 14.7438 10.5693C16.5212 10.8965 18.2371 11.2145 19.7653 11.9521C20.8293 12.4657 21.796 13.193 22.5968 14.2475C21.7546 4.24791 6.62626 8.70245 3.06592 0.0518516V0.0517578Z" fill="#C18F2C"/>
</svg>
