<svg width="23" height="21" viewBox="0 0 23 21" fill="none" xmlns="http://www.w3.org/2000/svg">
<path d="M19.0303 0.22759C18.8053 0.228152 18.5789 0.28684 18.3726 0.387246C18.7968 4.08268 18.6294 7.09459 16.3468 11.2549C19.3397 7.80962 20.0984 2.88259 19.8507 0.551309C19.6064 0.322277 19.3196 0.22684 19.0304 0.227543L19.0303 0.22759ZM14.7632 2.51275C10.1352 2.626 10.2864 16.2999 0.22467 18.7696C9.75956 24.676 28.2224 16.1116 20.0952 6.16309C20.0519 6.29387 20.0078 6.42493 19.9634 6.55717C20.4698 9.03301 20.2827 11.7236 19.0053 14.6606C19.1908 12.7742 19.1607 10.9689 18.8692 9.23926C18.5251 9.90864 18.0862 10.5579 17.6373 11.2109C17.7009 13.0867 17.3504 15.0662 16.4317 17.1787C16.579 15.6784 16.553 14.2314 16.4053 12.8252C15.8036 13.5092 15.132 14.1669 14.3794 14.769C14.2012 15.9586 13.8657 17.1905 13.3116 18.4648C13.411 17.4521 13.4269 16.4518 13.3935 15.4809C11.7253 16.6157 9.74423 17.523 7.34376 18.0269C9.36511 16.8925 10.9773 15.7222 12.2979 14.523C11.4292 14.342 10.5351 14.2239 9.64209 14.1407C10.7781 13.8532 11.9484 13.724 13.1197 13.7568C13.9272 12.931 14.6019 12.101 15.1455 11.2388C13.6393 10.9679 12.1149 10.8884 10.5738 10.9913C12.3432 10.135 14.106 9.83617 15.8575 9.95115C16.3101 9.01965 16.6197 8.05646 16.8433 7.07725C15.5112 6.95129 14.0603 7.26709 12.4078 7.67921C13.9 6.31234 15.5123 5.71806 17.1159 5.5435C17.1992 4.86512 17.2441 4.18618 17.2521 3.4854C16.3283 2.82821 15.5497 2.52737 14.8732 2.51275C14.8361 2.5119 14.7997 2.51181 14.7633 2.51275H14.7632Z" fill="#1F4B3E"/>
</svg>
