<svg width="11" height="12" viewBox="0 0 11 12" fill="none" xmlns="http://www.w3.org/2000/svg">
<path d="M4.62109 3.1602L6.5516 0.43067C7.12451 -0.379351 8.40011 0.04937 8.3675 1.04098L8.25393 4.49432C8.24344 4.81315 8.38569 5.11785 8.63685 5.31452L10.321 6.6333C11.1133 7.25372 10.5962 8.52402 9.59582 8.41471L7.68482 8.2059C7.33273 8.16743 6.98657 8.31807 6.77474 8.60193L4.66771 11.4255C4.06775 12.2295 2.78967 11.748 2.86942 10.748L3.14094 7.34348C3.1704 6.97409 2.99318 6.61869 2.68041 6.41995L0.99574 5.34948C0.135758 4.80303 0.548266 3.47088 1.56657 3.50605L3.77014 3.58217C4.10675 3.59379 4.4266 3.43519 4.62109 3.1602Z" fill="white"/>
</svg>
