<svg width="22" height="31" viewBox="0 0 22 31" fill="none" xmlns="http://www.w3.org/2000/svg">
<path d="M11 0.655182C5.195 0.655182 0.5 5.35018 0.5 11.1552C0.5 13.7652 1.25 16.2102 2.615 18.4152C4.04 20.7252 5.915 22.7052 7.355 25.0152C8.06 26.1402 8.57 27.1902 9.11 28.4052C9.5 29.2302 9.815 30.6552 11 30.6552C12.185 30.6552 12.5 29.2302 12.875 28.4052C13.43 27.1902 13.925 26.1402 14.63 25.0152C16.07 22.7202 17.945 20.7402 19.37 18.4152C20.75 16.2102 21.5 13.7652 21.5 11.1552C21.5 5.35018 16.805 0.655182 11 0.655182ZM11 15.2802C8.93 15.2802 7.25 13.6002 7.25 11.5302C7.25 9.46018 8.93 7.78018 11 7.78018C13.07 7.78018 14.75 9.46018 14.75 11.5302C14.75 13.6002 13.07 15.2802 11 15.2802Z" fill="#1F4B3E"/>
</svg>
