<svg width="20" height="20" viewBox="0 0 20 20" fill="none" xmlns="http://www.w3.org/2000/svg">
<path d="M18.4125 10L19.4741 8.16538C19.6016 7.94466 19.6363 7.68229 19.5705 7.43599C19.5047 7.18968 19.3438 6.9796 19.1231 6.85192L17.2866 5.79038V3.675C17.2866 3.41998 17.1853 3.17541 17.0049 2.99509C16.8246 2.81477 16.58 2.71346 16.325 2.71346H14.2106L13.15 0.877884C13.0219 0.657611 12.8123 0.496639 12.5664 0.429807C12.4444 0.396745 12.3171 0.38822 12.1918 0.404725C12.0665 0.421231 11.9458 0.462439 11.8366 0.525961L10 1.5875L8.16348 0.524999C7.94264 0.397497 7.68019 0.362944 7.43387 0.428942C7.18755 0.49494 6.97753 0.656083 6.85002 0.876922L5.78848 2.71346H3.67406C3.41904 2.71346 3.17447 2.81477 2.99415 2.99509C2.81382 3.17541 2.71252 3.41998 2.71252 3.675V5.78942L0.875981 6.85096C0.766397 6.914 0.670347 6.99806 0.593351 7.09833C0.516355 7.1986 0.459929 7.31309 0.427317 7.43523C0.394704 7.55737 0.386547 7.68475 0.403314 7.81006C0.420081 7.93536 0.461442 8.05611 0.52502 8.16538L1.58656 10L0.52502 11.8346C0.398086 12.0556 0.363646 12.3177 0.42921 12.5639C0.494774 12.8102 0.655024 13.0205 0.87502 13.149L2.71156 14.2106V16.325C2.71156 16.58 2.81286 16.8246 2.99319 17.0049C3.17351 17.1852 3.41808 17.2865 3.6731 17.2865H5.78848L6.85002 19.1231C6.93515 19.2686 7.05669 19.3895 7.20269 19.4737C7.34869 19.558 7.51412 19.6029 7.68271 19.6038C7.85002 19.6038 8.01637 19.5596 8.16444 19.474L9.99906 18.4125L11.8356 19.474C12.0564 19.6014 12.3187 19.6359 12.5649 19.5701C12.8111 19.5043 13.0212 19.3436 13.1491 19.1231L14.2096 17.2865H16.3241C16.5791 17.2865 16.8236 17.1852 17.004 17.0049C17.1843 16.8246 17.2856 16.58 17.2856 16.325V14.2106L19.1221 13.149C19.2315 13.0858 19.3274 13.0017 19.4042 12.9014C19.4811 12.8011 19.5374 12.6866 19.57 12.5646C19.6026 12.4425 19.6108 12.3152 19.5942 12.1899C19.5776 12.0647 19.5364 11.944 19.4731 11.8346L18.4125 10ZM7.59521 5.18269C7.97786 5.18282 8.34479 5.33495 8.61528 5.60561C8.88576 5.87628 9.03765 6.24331 9.03752 6.62596C9.03739 7.00861 8.88526 7.37554 8.6146 7.64603C8.34393 7.91651 7.9769 8.0684 7.59425 8.06827C7.2116 8.06814 6.84467 7.91601 6.57419 7.64535C6.3037 7.37468 6.15181 7.00765 6.15194 6.625C6.15207 6.24235 6.3042 5.87542 6.57486 5.60494C6.84553 5.33445 7.21256 5.18256 7.59521 5.18269ZM7.88367 14.4135L6.34521 13.2606L12.1144 5.56827L13.6529 6.72115L7.88367 14.4135ZM12.4029 14.7981C12.2134 14.798 12.0258 14.7606 11.8508 14.6881C11.6758 14.6155 11.5168 14.5092 11.3828 14.3752C11.2489 14.2411 11.1427 14.082 11.0702 13.907C10.9978 13.7319 10.9605 13.5443 10.9606 13.3548C10.9607 13.1653 10.998 12.9777 11.0706 12.8027C11.1432 12.6277 11.2495 12.4687 11.3835 12.3347C11.5175 12.2008 11.6766 12.0946 11.8517 12.0221C12.0268 11.9497 12.2144 11.9124 12.4039 11.9125C12.7865 11.9126 13.1534 12.0648 13.4239 12.3354C13.6944 12.6061 13.8463 12.9731 13.8462 13.3558C13.846 13.7384 13.6939 14.1053 13.4232 14.3758C13.1526 14.6463 12.7856 14.7982 12.4029 14.7981Z" fill="#C18F2C"/>
</svg>
