<svg width="104" height="100" viewBox="0 0 104 100" fill="none" xmlns="http://www.w3.org/2000/svg">
<path d="M101.21 56.5965C104.523 52.8226 104.523 47.1774 101.21 43.4035L97.6376 39.3331C95.8261 37.2691 94.9431 34.5511 95.1958 31.8165L95.6935 26.4297C96.155 21.4339 92.8433 16.8694 87.9509 15.7581L82.6374 14.5512C79.9638 13.9439 77.6569 12.2655 76.2561 9.90871L73.4817 5.24072C70.9173 0.925983 65.5517 -0.819266 60.9397 1.1612L55.9457 3.30568C53.4265 4.38747 50.5735 4.38747 48.0543 3.30568L43.0603 1.1612C38.4483 -0.819265 33.0827 0.925984 30.5183 5.24072L27.7519 9.89528C26.3464 12.26 24.029 13.9413 21.3449 14.5435L16.077 15.7255C11.1718 16.8261 7.8462 21.3972 8.30869 26.4029L8.80521 31.777C9.05729 34.5054 8.17882 37.2177 6.37506 39.2802L2.76764 43.405C-0.533566 47.1798 -0.52855 52.8158 2.77937 56.5847L6.36333 60.6681C8.17427 62.7314 9.05733 65.4484 8.80544 68.1821L8.30418 73.6223C7.84394 78.6173 11.1554 83.1803 16.047 84.2914L21.3626 85.4989C24.0362 86.1061 26.3431 87.7845 27.7439 90.1413L30.507 94.7904C33.0763 99.1133 38.4561 100.856 43.0719 98.8601L48.045 96.71C50.5695 95.6185 53.432 95.6149 55.9592 96.7001L60.9397 98.8388C65.5517 100.819 70.9173 99.074 73.4817 94.7593L76.2561 90.0913C77.6569 87.7345 79.9638 86.0562 82.6374 85.4489L87.9509 84.2419C92.8433 83.1306 96.155 78.5661 95.6935 73.5703L95.1958 68.1835C94.9431 65.449 95.8261 62.7309 97.6376 60.667L101.21 56.5965ZM49.0711 67.929C45.1658 71.8342 38.8342 71.8342 34.9289 67.9289L25.5284 58.5284C23.5797 56.5797 23.5797 53.4203 25.5284 51.4716C27.4744 49.5256 30.6286 49.5225 32.5784 51.4648L35.525 54.4C39.1031 57.9643 44.8913 57.9587 48.4625 54.3875L71.4 31.45C73.3586 29.4914 76.5358 29.4971 78.4875 31.4626C80.4294 33.4183 80.4238 36.5762 78.475 38.525L49.0711 67.929Z" fill="#1F4B3E"/>
</svg>
