<svg width="24" height="24" viewBox="0 0 24 24" fill="none" xmlns="http://www.w3.org/2000/svg">
<path d="M9.03921 6.93751C8.52429 7.82212 7.93643 9.13462 7.27561 10.875C7.08681 10.4423 6.92805 10.0938 6.79932 9.82934C6.67059 9.56491 6.4968 9.25962 6.27796 8.91347C6.05912 8.56732 5.84028 8.29568 5.62144 8.09857C5.4026 7.90145 5.13227 7.73318 4.81044 7.59376C4.48862 7.45434 4.1389 7.38462 3.7613 7.38462H0.877755C0.757607 7.38462 0.658915 7.34136 0.581677 7.25482C0.504439 7.16828 0.46582 7.0577 0.46582 6.92309V4.15386C0.46582 4.01924 0.504439 3.90866 0.581677 3.82212C0.658915 3.73559 0.757607 3.69232 0.877755 3.69232H3.7613C5.90679 3.69232 7.66609 4.77405 9.03921 6.93751ZM23.5342 18.4615C23.5342 18.5962 23.4955 18.7067 23.4183 18.7933L19.299 23.4087C19.2217 23.4952 19.123 23.5385 19.0029 23.5385C18.8913 23.5385 18.7948 23.4928 18.7132 23.4015C18.6317 23.3101 18.5909 23.2019 18.5909 23.0769V20.3077C18.3163 20.3077 17.9516 20.3101 17.4967 20.3149C17.0419 20.3197 16.6943 20.3245 16.454 20.3293C16.2137 20.3341 15.9005 20.3293 15.5143 20.3149C15.1281 20.3005 14.8235 20.2765 14.6003 20.2428C14.3772 20.2091 14.1026 20.1587 13.7765 20.0914C13.4503 20.024 13.18 19.9351 12.9655 19.8245C12.7509 19.714 12.502 19.5769 12.2188 19.4135C11.9356 19.25 11.6825 19.0577 11.4593 18.8365C11.2362 18.6154 11.0002 18.3582 10.7513 18.0649C10.5024 17.7716 10.2621 17.4375 10.0304 17.0625C10.5368 16.1683 11.1203 14.8558 11.7811 13.125C11.97 13.5577 12.1287 13.9063 12.2574 14.1707C12.3862 14.4351 12.56 14.7404 12.7788 15.0865C12.9976 15.4327 13.2165 15.7043 13.4353 15.9015C13.6542 16.0986 13.9245 16.2668 14.2463 16.4063C14.5681 16.5457 14.9179 16.6154 15.2955 16.6154H18.5909V13.8462C18.5909 13.7115 18.6296 13.601 18.7068 13.5144C18.784 13.4279 18.8827 13.3846 19.0029 13.3846C19.1059 13.3846 19.2088 13.4327 19.3118 13.5289L23.4183 18.1298C23.4955 18.2164 23.5342 18.3269 23.5342 18.4615ZM23.5342 5.53847C23.5342 5.67309 23.4955 5.78366 23.4183 5.8702L19.299 10.4856C19.2217 10.5721 19.123 10.6154 19.0029 10.6154C18.8913 10.6154 18.7948 10.5697 18.7132 10.4784C18.6317 10.387 18.5909 10.2789 18.5909 10.1539V7.38462H15.2955C14.8835 7.38462 14.5102 7.45674 14.1755 7.60097C13.8408 7.7452 13.5447 7.96155 13.2873 8.25001C13.0298 8.53847 12.811 8.83414 12.6308 9.13703C12.4505 9.43991 12.2574 9.81251 12.0515 10.2548C11.7769 10.851 11.4422 11.6731 11.0474 12.7212C10.7985 13.3558 10.5861 13.8894 10.4102 14.3221C10.2343 14.7548 10.0025 15.2596 9.71504 15.8365C9.42754 16.4135 9.15292 16.8942 8.89117 17.2789C8.62942 17.6635 8.31189 18.0625 7.93857 18.476C7.56526 18.8894 7.17907 19.2188 6.78001 19.464C6.38094 19.7091 5.92395 19.9111 5.40904 20.0697C4.89412 20.2284 4.34487 20.3077 3.7613 20.3077H0.877755C0.757607 20.3077 0.658915 20.2644 0.581677 20.1779C0.504439 20.0914 0.46582 19.9808 0.46582 19.8462V17.0769C0.46582 16.9423 0.504439 16.8317 0.581677 16.7452C0.658915 16.6587 0.757607 16.6154 0.877755 16.6154H3.7613C4.17323 16.6154 4.54655 16.5433 4.88124 16.399C5.21594 16.2548 5.51202 16.0385 5.76948 15.75C6.02694 15.4615 6.24578 15.1659 6.426 14.863C6.60622 14.5601 6.79932 14.1875 7.00528 13.7452C7.27991 13.149 7.6146 12.3269 8.00937 11.2789C8.25825 10.6442 8.47065 10.1106 8.64658 9.67789C8.82252 9.2452 9.05423 8.74039 9.34172 8.16347C9.62922 7.58655 9.90384 7.10578 10.1656 6.72116C10.4273 6.33655 10.7449 5.93751 11.1182 5.52405C11.4915 5.11059 11.8777 4.78126 12.2768 4.53607C12.6758 4.29087 13.1328 4.08895 13.6477 3.9303C14.1626 3.77164 14.7119 3.69232 15.2955 3.69232H18.5909V0.923086C18.5909 0.788471 18.6296 0.677894 18.7068 0.591356C18.784 0.504817 18.8827 0.461548 19.0029 0.461548C19.1059 0.461548 19.2088 0.509625 19.3118 0.605779L23.4183 5.20674C23.4955 5.29328 23.5342 5.40386 23.5342 5.53847Z" fill="white"/>
</svg>
