<svg width="170" height="175" viewBox="0 0 170 175" fill="none" xmlns="http://www.w3.org/2000/svg">
<g clip-path="url(#clip0_528_8681)">
<path d="M95.8704 111.469C94.7917 109.956 93.3314 108.849 91.4956 108.435C89.8948 108.073 88.2487 108.135 86.6214 108.147L66.0456 108.306C64.2834 108.32 62.5938 109.849 62.6757 111.682C62.757 113.5 64.1567 115.073 66.0456 115.058C72.0729 115.012 78.1002 114.965 84.1274 114.918C85.5484 114.907 86.9702 114.882 88.3912 114.886C88.7103 114.887 89.0281 114.904 89.3469 114.908C89.4242 114.909 89.4799 114.908 89.5193 114.906C89.5292 114.909 89.5375 114.912 89.5504 114.916C89.7167 114.961 89.8873 114.993 90.0546 115.036C89.996 115.038 90.1631 115.143 90.247 115.178C90.2585 115.201 90.2831 115.241 90.3241 115.304C90.3814 115.411 90.551 115.738 90.558 115.728C90.8128 116.373 91.023 117.035 91.1871 117.71C91.5787 119.196 91.6648 119.507 91.7211 120.902C91.7924 122.664 93.2201 124.362 95.091 124.278C96.8558 124.199 98.5373 122.792 98.4609 120.902C98.3322 117.718 97.7741 114.14 95.8704 111.469Z" fill="#E6E6E6"/>
<path d="M67.255 119.087C66.8686 116.741 66.4895 114.393 66.0955 112.049C65.6958 109.67 64.8793 107.492 63.0315 105.93C62.5377 105.513 62.0258 105.124 61.5117 104.736C61.3309 104.599 61.1504 104.462 60.9718 104.323C60.9611 104.315 60.9543 104.309 60.945 104.302C60.9254 104.285 60.9018 104.265 60.8701 104.238C60.1 103.585 59.3558 102.903 58.6469 102.178C58.0174 101.534 57.4154 100.863 56.8409 100.164C56.6974 99.9899 56.5557 99.8138 56.4158 99.6361C56.3917 99.6056 56.2621 99.4378 56.1768 99.3283C56.0974 99.2188 55.9523 99.0209 55.9279 98.9864C55.7645 98.7549 55.604 98.5212 55.4464 98.2854C54.3731 96.6745 53.4437 94.9718 52.669 93.1972C52.5922 93.0212 52.5172 92.8442 52.444 92.6662C52.4243 92.6118 52.3989 92.542 52.3652 92.4491C52.2091 92.019 52.0533 91.5895 51.9105 91.1543C51.6073 90.23 51.3465 89.2921 51.1283 88.3405C51.0204 87.8706 50.9233 87.3983 50.837 86.9237C50.7924 86.6796 50.7508 86.435 50.712 86.1899C50.7056 86.1492 50.6678 85.8847 50.6455 85.7353C50.629 85.5852 50.5984 85.3193 50.5943 85.2783C50.5696 85.0312 50.5477 84.7839 50.5286 84.5363C50.4855 83.9793 50.4563 83.4213 50.4412 82.8624C50.4152 81.8692 50.433 80.876 50.4944 79.8828C50.5294 79.3248 50.5792 78.7683 50.6405 78.2128C50.6442 78.1786 50.647 78.1515 50.6497 78.127C50.6534 78.1022 50.6577 78.074 50.6629 78.039C50.7082 77.732 50.7559 77.4254 50.8093 77.1198C51.0115 75.9594 51.2743 74.8105 51.5969 73.6777C51.7496 73.142 51.9155 72.6106 52.0945 72.0836C52.1743 71.8497 52.2567 71.6166 52.3416 71.3844C52.336 71.3994 52.5905 70.7481 52.5939 70.7262C53.6038 68.3359 55.2557 66.1568 55.2579 63.4414C55.2595 61.6029 53.7069 59.8418 51.888 59.9268C50.9812 59.961 50.123 60.3465 49.4944 61.0022C48.8657 61.6578 48.5157 62.5323 48.5181 63.4414C48.5181 63.4827 48.5179 63.5179 48.5178 63.5521C48.5008 63.6093 48.4867 63.6571 48.4739 63.6993C48.277 64.128 48.0357 64.5354 47.8195 64.9535C47.2276 66.0978 46.7223 67.2797 46.2424 68.4789C45.4566 70.4318 44.8552 72.454 44.4459 74.5193C43.5564 79.0443 43.4873 83.6928 44.2421 88.2423C45.5487 96.2206 49.8575 103.858 55.8478 108.991C56.3677 109.437 56.9002 109.867 57.4377 110.289C57.6602 110.464 57.8845 110.635 58.1099 110.805C58.2164 110.886 58.6578 111.234 58.4637 111.065C58.8812 111.422 59.057 111.602 59.1642 111.865C59.1798 111.926 59.2009 112.008 59.2296 112.12C59.3052 112.417 59.377 112.713 59.4367 113.013C59.9581 115.641 60.3205 118.312 60.756 120.956C61.0554 122.773 63.2881 123.955 64.9014 123.411C66.7793 122.777 67.5758 121.034 67.255 119.087Z" fill="#E6E6E6"/>
<path d="M96.2113 125.901C94.796 125.905 93.4371 125.346 92.4326 124.347C91.4281 123.349 90.8601 121.992 90.8532 120.574V116.723C86.8285 117.174 73.0468 117.07 69.0963 116.434V120.42C69.0857 121.836 68.5165 123.191 67.5128 124.189C66.5091 125.187 65.1523 125.747 63.7381 125.747C62.324 125.747 60.9671 125.187 59.9634 124.189C58.9597 123.191 58.3906 121.836 58.38 120.42V112.594C53.0293 109.616 48.5688 105.262 45.4588 99.9805C42.3487 94.6993 40.7018 88.6824 40.688 82.5507C40.688 72.0369 45.4444 62.229 53.7377 55.6419C59.1298 51.3446 65.6813 48.7601 72.5506 48.2206C73.483 48.1473 74.4211 48.1102 75.339 48.1102C78.5724 48.1102 93.1612 48.6106 96.8216 49.6656L105.168 41.369C105.291 41.2453 105.447 41.1611 105.618 41.127C105.789 41.093 105.966 41.1106 106.126 41.1777C106.288 41.2422 106.427 41.3542 106.524 41.499C106.621 41.6439 106.672 41.8148 106.671 41.9893V43.3084L108.296 41.696C108.418 41.5722 108.575 41.4879 108.745 41.4537C108.916 41.4196 109.093 41.4372 109.253 41.5043C109.415 41.5688 109.554 41.6809 109.651 41.8258C109.749 41.9707 109.8 42.1417 109.798 42.3163V57.0573C113.986 60.8396 117.178 65.5985 119.092 70.9122C121.005 76.226 121.58 81.9304 120.766 87.52C119.952 93.1097 117.774 98.4119 114.426 102.957C111.077 107.502 106.661 111.149 101.569 113.575V120.574C101.562 121.992 100.994 123.349 99.99 124.347C98.9855 125.346 97.6265 125.905 96.2113 125.901ZM91.2744 116.244V120.574C91.285 121.878 91.8098 123.126 92.7345 124.045C93.6592 124.964 94.9089 125.479 96.2113 125.479C97.5137 125.479 98.7633 124.964 99.688 124.045C100.613 123.126 101.138 121.878 101.148 120.574V113.309L101.268 113.252C106.982 110.536 111.832 106.286 115.281 100.976C119.676 94.1988 121.503 86.0699 120.433 78.0602C119.363 70.0504 115.466 62.6891 109.447 57.3084L109.377 57.2455V42.3163C109.379 42.2256 109.352 42.1366 109.302 42.0613C109.251 41.986 109.179 41.928 109.094 41.8952C109.011 41.8593 108.918 41.8496 108.828 41.8674C108.739 41.8852 108.657 41.9297 108.593 41.995L106.249 44.3203V41.9893C106.251 41.8986 106.225 41.8096 106.174 41.7343C106.124 41.659 106.051 41.601 105.967 41.5682C105.883 41.5323 105.79 41.5227 105.7 41.5407C105.61 41.5586 105.528 41.6033 105.464 41.6688L96.9393 50.143L96.8182 50.105C93.4154 49.0381 78.597 48.5322 75.3389 48.5322C74.432 48.5322 73.505 48.5689 72.5837 48.6413C65.7979 49.1743 59.326 51.7273 53.9994 55.9725C45.8075 62.4791 41.1092 72.1665 41.1092 82.5507C41.1232 88.6281 42.7613 94.591 45.8534 99.8198C48.9454 105.049 53.3787 109.353 58.6925 112.285L58.8012 112.345V120.42C58.812 121.724 59.337 122.972 60.2616 123.89C61.1863 124.809 62.4358 125.324 63.7381 125.324C65.0404 125.324 66.2899 124.809 67.2146 123.89C68.1393 122.972 68.6642 121.724 68.6751 120.42V115.929L68.9246 115.976C72.4747 116.645 87.4236 116.75 91.0364 116.276L91.2744 116.244Z" fill="#3F3D56"/>
<path d="M67.6576 25.133L44.3337 32.1549C43.5918 32.3791 42.9692 32.8892 42.6025 33.573C42.2358 34.2569 42.1551 35.0586 42.3781 35.802C42.6011 36.5455 43.1096 37.1698 43.7918 37.5379C44.474 37.906 45.2742 37.9878 46.0166 37.7652L66.4275 31.619L66.8552 31.4902C66.9417 29.2829 67.5394 27.126 68.6012 25.19C68.4679 25.1299 68.3255 25.0928 68.1799 25.0803C68.0041 25.0632 67.8266 25.0811 67.6576 25.133Z" fill="#C18F2C"/>
<path d="M45.613 39.2622C45.3034 39.2615 45.0019 39.1633 44.751 38.9815C44.5001 38.7997 44.3126 38.5435 44.215 38.2492L42.7565 33.8403C42.6956 33.6562 42.6715 33.4618 42.6855 33.2684C42.6996 33.0749 42.7516 32.8861 42.8385 32.7128C42.9254 32.5395 43.0455 32.385 43.192 32.2582C43.3385 32.1313 43.5085 32.0347 43.6923 31.9737L62.6756 25.6713C62.8594 25.6103 63.0534 25.5861 63.2465 25.6002C63.4396 25.6142 63.628 25.6663 63.8011 25.7533C63.9741 25.8403 64.1283 25.9607 64.2549 26.1074C64.3815 26.2541 64.478 26.4244 64.5389 26.6085L65.9974 31.0174C66.1188 31.3801 66.0944 31.7758 65.9296 32.1207C65.7647 32.4657 65.4723 32.7328 65.1143 32.8656C65.0967 32.8722 65.079 32.8784 65.0611 32.8842L46.0783 39.1864C45.9283 39.2365 45.7712 39.2621 45.613 39.2622Z" fill="#2F2E41"/>
<path d="M81.1647 17.3031C77.3333 17.3045 73.6529 18.7995 70.9023 21.4714C68.1518 24.1433 66.547 27.7826 66.4277 31.619C66.4234 31.7688 66.4214 31.9207 66.4214 32.0726C66.4214 34.9937 67.2861 37.8493 68.9061 40.2781C70.5261 42.7069 72.8287 44.6 75.5227 45.7179C78.2167 46.8357 81.181 47.1282 84.041 46.5583C86.9009 45.9885 89.5279 44.5818 91.5898 42.5162C93.6517 40.4507 95.0558 37.819 95.6247 34.954C96.1936 32.089 95.9016 29.1193 94.7857 26.4205C93.6698 23.7218 91.7802 21.4151 89.3556 19.7922C86.9311 18.1693 84.0806 17.3031 81.1647 17.3031ZM81.1647 46.4201C77.3674 46.4162 73.7269 44.9033 71.0418 42.2135C68.3568 39.5236 66.8466 35.8766 66.8426 32.0726C66.8426 31.8764 66.8468 31.6823 66.8553 31.4902C66.9693 28.6798 67.9055 25.9649 69.5475 23.6832C71.1894 21.4014 73.4646 19.6535 76.0902 18.6568C78.7158 17.6601 81.576 17.4586 84.315 18.0772C87.0541 18.6958 89.5511 20.1074 91.4958 22.1364C93.4404 24.1653 94.7468 26.7222 95.2525 29.489C95.7582 32.2558 95.4409 35.1105 94.3401 37.6981C93.2392 40.2856 91.4034 42.492 89.0609 44.0427C86.7184 45.5935 83.9725 46.4202 81.1647 46.4201Z" fill="#3F3D56"/>
<path d="M93.5913 32.0726C93.5913 35.3742 92.2821 38.5405 89.9516 40.8751C87.6212 43.2097 84.4605 44.5212 81.1648 44.5212C77.8691 44.5212 74.7083 43.2097 72.3779 40.8751C70.0475 38.5405 68.7383 35.3742 68.7383 32.0726C68.7383 31.678 68.7572 31.2898 68.793 30.9058C69.0925 27.7194 70.6054 24.771 73.0178 22.6728C75.4302 20.5745 78.5565 19.4876 81.7478 19.6378C84.939 19.7879 87.95 21.1636 90.1554 23.4791C92.3608 25.7947 93.5913 28.8721 93.5913 32.0726Z" fill="#E6E6E6"/>
<path d="M84.8654 32.8997C84.5642 32.503 84.1679 32.1887 83.7133 31.9861C83.1526 31.7494 82.5736 31.5588 81.982 31.4164V28.0278C82.8914 28.1652 83.7443 28.5548 84.4441 29.1524L85.1308 27.686C84.7359 27.3336 84.2825 27.053 83.7912 26.8568C83.2466 26.6359 82.675 26.489 82.0915 26.4201V24.7026H80.5014V26.437C79.8874 26.5061 79.295 26.7053 78.7638 27.0214C78.2839 27.306 77.8799 27.7027 77.5864 28.1777C77.3062 28.6412 77.1611 29.174 77.1673 29.7158C77.1399 30.303 77.3097 30.8824 77.6496 31.3615C77.9624 31.7764 78.3756 32.1046 78.8501 32.3152C79.4197 32.5589 80.0087 32.7544 80.6109 32.8997V36.1469C79.5378 36.0658 78.5153 35.6571 77.6812 34.9759L76.9946 36.4444C77.461 36.8306 77.9914 37.132 78.5616 37.3348C79.1865 37.5588 79.8393 37.6951 80.5014 37.7399V39.4426H82.0916V37.7082C82.9748 37.6115 83.8031 37.2311 84.4526 36.6237C84.7386 36.3489 84.9646 36.0176 85.1161 35.6508C85.2677 35.284 85.3415 34.8896 85.333 34.4927C85.3594 33.9242 85.1947 33.3633 84.8654 32.8997ZM80.6109 31.0577C80.2236 30.94 79.8634 30.7464 79.5515 30.488C79.4279 30.3779 79.3302 30.2416 79.2653 30.0892C79.2005 29.9367 79.1702 29.7717 79.1766 29.6061C79.1651 29.2303 79.303 28.8653 79.5599 28.5912C79.8448 28.3037 80.2123 28.1126 80.6109 28.0447V31.0577ZM82.9804 35.5477C82.7117 35.8237 82.3618 36.0063 81.982 36.0688V33.2753C82.345 33.3728 82.6846 33.5429 82.9804 33.7753C83.0925 33.8712 83.1816 33.9912 83.241 34.1264C83.3004 34.2615 83.3287 34.4084 83.3237 34.556C83.3383 34.9181 83.2157 35.2724 82.9804 35.5477Z" fill="#C18F2C"/>
<path d="M46.2901 57.1311C45.9645 57.1305 45.6482 57.0224 45.3902 56.8234C45.1322 56.6244 44.9469 56.3457 44.8631 56.0306L44.0691 53.0197C43.9697 52.6412 44.0242 52.2388 44.2206 51.9005C44.417 51.5623 44.7394 51.3159 45.1169 51.2154L70.168 44.584C70.5461 44.4852 70.9478 44.5403 71.2853 44.7375C71.6228 44.9346 71.8686 45.2576 71.969 45.6358L72.6417 48.1867L72.5157 48.1965C66.0909 48.697 59.9436 51.0305 54.8011 54.9211L54.7645 54.9388L46.6641 57.0824C46.542 57.1147 46.4163 57.1311 46.2901 57.1311Z" fill="#2F2E41"/>
<path d="M42.1415 72.0032C39.2028 71.5683 36.3924 70.5037 33.9016 68.8821C32.6676 68.0794 31.5253 67.1434 30.4951 66.091C29.4782 65.052 28.5055 63.8711 28.0018 62.4875C27.5172 61.2073 27.5422 59.7895 28.0716 58.5273C28.5937 57.2727 29.5912 56.2768 30.8452 55.7579C32.1067 55.2539 33.6309 55.2 34.8586 55.7519C35.4436 56.0088 35.9499 56.417 36.3254 56.9347C36.5 57.1734 36.6292 57.4421 36.7067 57.7276C36.7786 57.9863 36.7851 58.2589 36.7257 58.5208C36.6537 58.7822 36.5268 59.0252 36.3534 59.2335C36.1799 59.4417 35.9641 59.6105 35.7203 59.7283C35.1836 60.0041 34.6022 60.1817 34.0033 60.2529C33.4009 60.3352 32.5355 60.41 32.0513 59.9256C31.9516 59.8298 31.8732 59.714 31.8211 59.5858C31.7847 59.4876 31.7723 59.3821 31.7848 59.2781C31.7778 59.324 31.814 59.1785 31.812 59.1843C31.8043 59.2058 31.7712 59.2582 31.8183 59.1777C31.833 59.1511 31.8494 59.1255 31.8674 59.1011C31.8514 59.1218 31.8162 59.1564 31.879 59.097C31.9309 59.0402 31.9976 58.9989 32.0716 58.9779C32.1007 58.9694 32.1303 58.9627 32.1595 58.9547C32.2338 58.9343 32.0855 58.9558 32.1615 58.9533C32.1908 58.9524 32.2205 58.9531 32.2497 58.9518C32.3243 58.9484 32.1762 58.9314 32.2476 58.9494C32.2754 58.9564 32.3029 58.9632 32.3302 58.9719C32.3896 58.9906 32.2881 58.9282 32.3284 58.9749C32.3756 59.0297 32.2788 58.9217 32.3325 58.9747C32.3592 59.0009 32.3843 59.0287 32.4078 59.0579C32.5008 59.1498 32.6262 59.2014 32.7569 59.2014C32.8876 59.2014 33.013 59.1498 33.106 59.0579C33.1958 58.9637 33.246 58.8384 33.246 58.7081C33.246 58.5779 33.1958 58.4526 33.106 58.3584C32.6192 57.7538 31.6576 57.9032 31.1651 58.4142C30.537 59.0658 30.7857 60.0986 31.3967 60.6672C32.0883 61.3109 33.0678 61.3556 33.9575 61.2477C34.7093 61.1755 35.442 60.9681 36.1203 60.6353C36.7943 60.3036 37.3215 59.7331 37.5997 59.0343C37.7253 58.6614 37.7704 58.266 37.7321 57.8743C37.6937 57.4826 37.5728 57.1035 37.3772 56.7621C36.5918 55.2828 34.9653 54.5244 33.3577 54.393C32.53 54.3281 31.6977 54.4282 30.9089 54.6876C30.1201 54.947 29.3905 55.3606 28.7623 55.9043C27.5514 56.9963 26.8058 58.5128 26.6796 60.14C26.5393 61.8271 27.1927 63.4655 28.1454 64.8271C29.1427 66.2105 30.3328 67.4435 31.6794 68.4885C34.312 70.594 37.4001 72.053 40.6964 72.7486C41.0885 72.8298 41.4827 72.8992 41.879 72.957C42.0051 72.9876 42.1381 72.9689 42.2509 72.9048C42.3637 72.8406 42.4479 72.7357 42.4863 72.6116C42.5201 72.4851 42.5029 72.3504 42.4384 72.2365C42.3739 72.1227 42.2672 72.0389 42.1415 72.0032Z" fill="#3F3D56"/>
<path d="M89.1903 50.508C84.8848 50.4471 80.5929 50.5566 76.3146 50.8364C74.8522 50.932 73.5869 51.4498 73.5869 52.3201C73.5869 53.0477 74.8421 53.9001 76.3146 53.8038C80.5907 53.524 84.8827 53.4146 89.1903 53.4754C92.7021 53.5251 92.7001 50.5576 89.1903 50.508Z" fill="#CCCCCC"/>
<path d="M82.8268 53.3284C82.3615 53.3284 71.4312 53.311 71.4312 51.7985C71.4312 50.2861 82.3615 50.2687 82.8268 50.2687C83.2921 50.2687 94.2225 50.2861 94.2225 51.7985C94.2225 53.311 83.2921 53.3284 82.8268 53.3284ZM71.8586 51.7985C72.1577 52.2571 76.1755 52.9064 82.8268 52.9064C89.4782 52.9064 93.4959 52.2571 93.7951 51.7985C93.496 51.3401 89.4782 50.6907 82.8268 50.6907C76.1755 50.6907 72.1577 51.3401 71.8586 51.7985Z" fill="#3F3D56"/>
<path d="M117.506 93.0902C119.926 93.0229 122.937 92.9388 125.257 91.241C125.948 90.7148 126.515 90.0436 126.92 89.2744C127.325 88.5052 127.556 87.6567 127.599 86.7884C127.647 85.4476 127.163 84.2773 126.238 83.4939C125.026 82.4682 123.257 82.2276 121.35 82.789L123.325 68.3258L121.875 68.1267L119.553 85.13L120.764 84.5733C122.168 83.9282 124.095 83.5999 125.293 84.6138C125.587 84.8789 125.816 85.2083 125.962 85.5765C126.109 85.9447 126.168 86.3418 126.136 86.7368C126.101 87.3831 125.927 88.0142 125.626 88.587C125.325 89.1599 124.905 89.6612 124.394 90.0567C122.588 91.3778 120.188 91.5482 117.465 91.6245L117.506 93.0902Z" fill="#3F3D56"/>
<path d="M113.496 69.5731H105.612V71.0396H113.496V69.5731Z" fill="#3F3D56"/>
<path d="M49.8577 63.8756C49.5068 63.8745 49.1677 63.7482 48.9012 63.5194C48.6348 63.2907 48.4584 62.9743 48.4036 62.6271L47.9223 59.5505C47.8622 59.1635 47.9578 58.7685 48.1881 58.4521C48.4184 58.1356 48.7646 57.9237 49.1507 57.8626L74.7475 53.8448C75.1337 53.7846 75.528 53.8803 75.8439 54.111C76.1597 54.3417 76.3713 54.6885 76.4322 55.0753L76.9134 58.152C76.9735 58.5389 76.878 58.934 76.6477 59.2504C76.4174 59.5668 76.0713 59.7788 75.6851 59.8399L50.0883 63.8576C50.012 63.8696 49.9349 63.8756 49.8577 63.8756Z" fill="#2F2E41"/>
<path d="M39.2645 27.8205C45.1969 27.8205 50.006 23.0028 50.006 17.0598C50.006 11.1169 45.1969 6.29915 39.2645 6.29915C33.3321 6.29915 28.5229 11.1169 28.5229 17.0598C28.5229 23.0028 33.3321 27.8205 39.2645 27.8205Z" fill="#C18F2C"/>
<path d="M45.3462 19.8441C45.6895 19.7238 46.0031 19.5313 46.2659 19.2794C46.4398 19.0999 46.5724 18.8844 46.6545 18.6481C46.7365 18.4118 46.766 18.1605 46.7408 17.9116C46.7262 17.7342 46.6709 17.5625 46.5791 17.4101C46.4873 17.2577 46.3616 17.1286 46.2117 17.033C45.823 16.7935 45.3093 16.8025 44.7907 17.0434L44.7308 12.8429L44.3097 12.8489L44.38 17.787L44.7006 17.5763C45.0724 17.3324 45.6067 17.1556 45.991 17.3924C46.0861 17.4551 46.1654 17.5389 46.2229 17.6374C46.2803 17.7358 46.3144 17.8462 46.3223 17.9599C46.34 18.1453 46.3177 18.3324 46.2567 18.5084C46.1958 18.6844 46.0978 18.8451 45.9693 18.9798C45.5127 19.4336 44.8368 19.5857 44.0654 19.7248L44.1401 20.1401C44.5501 20.0777 44.9538 19.9786 45.3462 19.8441Z" fill="#2F2E41"/>
<path d="M49.0683 12.5481L46.8252 12.8884L46.8883 13.3056L49.1314 12.9653L49.0683 12.5481Z" fill="#2F2E41"/>
<path d="M41.9878 13.622L39.7446 13.9623L39.8077 14.3795L42.0508 14.0392L41.9878 13.622Z" fill="#2F2E41"/>
<path d="M46.3633 63.6875C45.9769 63.6867 45.6001 63.568 45.2827 63.3474C44.9654 63.1267 44.7226 62.8144 44.5868 62.4521L37.1808 42.5831C36.2756 40.1463 36.3723 37.4493 37.4496 35.0838C38.5269 32.7183 40.4969 30.8775 42.9274 29.9653L48.9493 27.7126C49.1822 27.6249 49.43 27.5842 49.6786 27.5929C49.9273 27.6015 50.1717 27.6594 50.3979 27.763C50.6236 27.864 50.8269 28.0091 50.996 28.1897C51.1651 28.3703 51.2965 28.5829 51.3827 28.815L65.1016 54.7638C65.1907 54.9978 65.2327 55.2471 65.2252 55.4974C65.2177 55.7477 65.1609 55.9941 65.058 56.2223C64.9551 56.4505 64.8082 56.6561 64.6256 56.8272C64.4431 56.9983 64.2286 57.1316 63.9945 57.2193L47.0257 63.5669C46.8139 63.6465 46.5895 63.6873 46.3633 63.6875Z" fill="#2F2E41"/>
<path d="M47.1221 28.396L60.7341 46.6312L51.5235 28.5874C51.4474 28.3769 51.3306 28.1834 51.1799 28.0181C51.0292 27.8527 50.8475 27.7188 50.645 27.6238C50.4426 27.5289 50.2235 27.4748 50.0003 27.4647C49.777 27.4546 49.5539 27.4886 49.3438 27.5649L47.1221 28.396Z" fill="#E6E6E6"/>
<path d="M68.675 42.2446L44.3706 40.6762C43.9875 40.6515 43.613 40.5514 43.2686 40.3817C42.9241 40.212 42.6163 39.976 42.3629 39.6872C42.1094 39.3983 41.9153 39.0623 41.7915 38.6983C41.6676 38.3343 41.6166 37.9494 41.6413 37.5656C41.666 37.1818 41.7659 36.8067 41.9353 36.4616C42.1047 36.1165 42.3403 35.8082 42.6286 35.5543C42.9169 35.3004 43.2524 35.1059 43.6157 34.9818C43.9791 34.8578 44.3633 34.8067 44.7464 34.8314L69.0508 36.3996C69.2302 36.4112 69.4056 36.458 69.5669 36.5375C69.7283 36.617 69.8724 36.7275 69.9911 36.8628C70.1098 36.998 70.2007 37.1554 70.2587 37.3259C70.3167 37.4964 70.3406 37.6766 70.329 37.8563L70.1292 40.9641C70.1059 41.3271 69.9395 41.6659 69.6668 41.906C69.3941 42.1462 69.0373 42.2679 68.675 42.2446Z" fill="#C18F2C"/>
<path d="M62.1806 43.25C62.1485 43.25 62.1164 43.249 62.0841 43.2469L42.1267 41.9591C41.9334 41.9467 41.7446 41.8962 41.5708 41.8106C41.3971 41.7251 41.2419 41.606 41.114 41.4604C40.9862 41.3147 40.8883 41.1452 40.8258 40.9616C40.7634 40.778 40.7377 40.5839 40.7501 40.3904L41.0914 35.0822C41.1038 34.8886 41.1542 34.6994 41.2397 34.5253C41.3251 34.3513 41.444 34.1958 41.5894 34.0678C41.7348 33.9397 41.904 33.8416 42.0873 33.7791C42.2706 33.7165 42.4643 33.6908 42.6576 33.7033L62.6149 34.991C63.005 35.0166 63.3689 35.1961 63.627 35.4902C63.885 35.7843 64.0161 36.1689 63.9914 36.5597L63.6502 41.868C63.6314 42.1525 63.531 42.4254 63.3612 42.6541C63.1913 42.8828 62.9592 43.0576 62.6927 43.1574C62.5289 43.2187 62.3555 43.2501 62.1806 43.25Z" fill="#2F2E41"/>
<path d="M39.1414 9.90414C40.5545 8.68665 42.495 9.77578 44.1155 9.58512C45.6659 9.40271 46.8901 8.00952 47.2029 6.52944C47.5677 4.80267 46.673 3.07269 45.3543 1.99608C43.91 0.816931 41.9945 0.478424 40.1793 0.696577C38.0989 0.946604 36.1963 1.91809 34.4891 3.09315C32.8412 4.19224 31.3258 5.47865 29.9731 6.92673C28.7618 8.26689 27.7355 9.86432 27.4078 11.6677C27.11 13.3066 27.3374 15.1227 28.3045 16.5111C28.8173 17.2227 29.5046 17.7899 30.2999 18.1579C31.1292 18.5659 32.0138 18.8575 32.8173 19.3188C34.0321 20.0162 35.2127 21.4622 34.8322 22.967C34.7506 23.2958 34.5896 23.5994 34.3634 23.8511C34.0915 24.1534 33.6012 23.7539 33.8738 23.4508C34.3525 22.9185 34.3336 22.2085 34.0785 21.5729C33.7751 20.8567 33.238 20.265 32.555 19.8946C31.714 19.413 30.7855 19.1156 29.9235 18.6769C29.0985 18.2761 28.3823 17.6815 27.836 16.9438C26.8043 15.5076 26.4957 13.6384 26.7297 11.9093C26.9829 10.0381 27.9426 8.33777 29.1456 6.91288C30.4549 5.3622 32.0631 4.04959 33.7061 2.87038C35.4689 1.60509 37.4166 0.535367 39.5718 0.148466C41.44 -0.186916 43.465 0.0195661 45.0987 1.03948C46.6236 1.9915 47.793 3.62916 47.9093 5.45909C47.9511 6.2917 47.7706 7.12042 47.3865 7.85996C47.0024 8.59951 46.4285 9.22316 45.7239 9.66673C45.0009 10.1002 44.1603 10.2952 43.3207 10.2245C42.4231 10.1669 41.5247 9.89156 40.6214 9.968C40.2127 9.99286 39.8231 10.1505 39.5119 10.4171C39.2031 10.6831 38.8352 10.168 39.1414 9.90414Z" fill="#2F2E41"/>
<path d="M162.749 126H7.25054C7.18416 126 7.12056 125.973 7.07369 125.926C7.02681 125.879 7.00049 125.815 7.00049 125.749C7.00049 125.682 7.02681 125.618 7.07369 125.571C7.12056 125.524 7.18416 125.498 7.25054 125.498H162.749C162.815 125.498 162.879 125.524 162.926 125.571C162.973 125.618 163 125.682 163 125.749C163 125.815 162.973 125.879 162.926 125.926C162.879 125.974 162.815 126 162.749 126Z" fill="#3F3D56"/>
</g>
<path d="M11.1696 157.48V169H10.2176C10.0736 169 9.95096 168.976 9.84963 168.928C9.74829 168.875 9.65229 168.789 9.56163 168.672L3.23363 160.544C3.24963 160.699 3.26029 160.853 3.26563 161.008C3.27629 161.157 3.28163 161.296 3.28163 161.424V169H1.63363V157.48H2.60963C2.68963 157.48 2.75629 157.485 2.80963 157.496C2.86829 157.501 2.92163 157.515 2.96963 157.536C3.01763 157.557 3.06296 157.589 3.10563 157.632C3.14829 157.675 3.19363 157.728 3.24163 157.792L9.57763 165.928C9.56163 165.763 9.54829 165.6 9.53763 165.44C9.53229 165.28 9.52963 165.131 9.52963 164.992V157.48H11.1696ZM16.8729 160.712C17.4755 160.712 18.0195 160.811 18.5049 161.008C18.9955 161.205 19.4115 161.485 19.7529 161.848C20.0995 162.211 20.3662 162.651 20.5529 163.168C20.7395 163.685 20.8329 164.267 20.8329 164.912C20.8329 165.557 20.7395 166.139 20.5529 166.656C20.3662 167.173 20.0995 167.616 19.7529 167.984C19.4115 168.347 18.9955 168.627 18.5049 168.824C18.0195 169.021 17.4755 169.12 16.8729 169.12C16.2649 169.12 15.7155 169.021 15.2249 168.824C14.7395 168.627 14.3235 168.347 13.9769 167.984C13.6302 167.616 13.3635 167.173 13.1769 166.656C12.9902 166.139 12.8969 165.557 12.8969 164.912C12.8969 164.267 12.9902 163.685 13.1769 163.168C13.3635 162.651 13.6302 162.211 13.9769 161.848C14.3235 161.485 14.7395 161.205 15.2249 161.008C15.7155 160.811 16.2649 160.712 16.8729 160.712ZM16.8729 167.776C17.6089 167.776 18.1555 167.531 18.5129 167.04C18.8755 166.544 19.0569 165.837 19.0569 164.92C19.0569 164.003 18.8755 163.296 18.5129 162.8C18.1555 162.299 17.6089 162.048 16.8729 162.048C16.1262 162.048 15.5715 162.299 15.2089 162.8C14.8462 163.296 14.6649 164.003 14.6649 164.92C14.6649 165.837 14.8462 166.544 15.2089 167.04C15.5715 167.531 16.1262 167.776 16.8729 167.776ZM30.1339 163C30.5605 163 30.9339 162.949 31.2539 162.848C31.5739 162.741 31.8405 162.595 32.0539 162.408C32.2672 162.221 32.4272 162 32.5339 161.744C32.6405 161.483 32.6939 161.195 32.6939 160.88C32.6939 160.251 32.4859 159.771 32.0699 159.44C31.6539 159.109 31.0245 158.944 30.1819 158.944H28.6619V163H30.1339ZM35.5579 169H33.8859C33.5552 169 33.3152 168.872 33.1659 168.616L30.4779 164.736C30.3872 164.603 30.2885 164.507 30.1819 164.448C30.0752 164.389 29.9152 164.36 29.7019 164.36H28.6619V169H26.7899V157.48H30.1819C30.9392 157.48 31.5899 157.557 32.1339 157.712C32.6832 157.867 33.1339 158.088 33.4859 158.376C33.8379 158.659 34.0965 159 34.2619 159.4C34.4325 159.8 34.5179 160.245 34.5179 160.736C34.5179 161.136 34.4565 161.509 34.3339 161.856C34.2165 162.203 34.0432 162.517 33.8139 162.8C33.5899 163.083 33.3125 163.328 32.9819 163.536C32.6512 163.744 32.2752 163.907 31.8539 164.024C32.0832 164.163 32.2805 164.357 32.4459 164.608L35.5579 169ZM41.4469 164C41.4469 163.712 41.4042 163.445 41.3189 163.2C41.2389 162.949 41.1189 162.733 40.9589 162.552C40.7989 162.365 40.5989 162.221 40.3589 162.12C40.1242 162.013 39.8522 161.96 39.5429 161.96C38.9189 161.96 38.4282 162.139 38.0709 162.496C37.7135 162.853 37.4869 163.355 37.3909 164H41.4469ZM37.3429 165.056C37.3642 165.52 37.4362 165.923 37.5589 166.264C37.6815 166.6 37.8442 166.88 38.0469 167.104C38.2549 167.328 38.5002 167.496 38.7829 167.608C39.0709 167.715 39.3909 167.768 39.7429 167.768C40.0789 167.768 40.3695 167.731 40.6149 167.656C40.8602 167.576 41.0735 167.491 41.2549 167.4C41.4362 167.304 41.5909 167.219 41.7189 167.144C41.8469 167.064 41.9642 167.024 42.0709 167.024C42.2095 167.024 42.3162 167.077 42.3909 167.184L42.8789 167.816C42.6762 168.056 42.4469 168.259 42.1909 168.424C41.9349 168.589 41.6629 168.725 41.3749 168.832C41.0869 168.933 40.7909 169.005 40.4869 169.048C40.1829 169.096 39.8869 169.12 39.5989 169.12C39.0335 169.12 38.5082 169.027 38.0229 168.84C37.5429 168.648 37.1242 168.368 36.7669 168C36.4149 167.632 36.1375 167.176 35.9349 166.632C35.7375 166.088 35.6389 165.461 35.6389 164.752C35.6389 164.187 35.7269 163.659 35.9029 163.168C36.0842 162.677 36.3402 162.251 36.6709 161.888C37.0069 161.525 37.4122 161.24 37.8869 161.032C38.3669 160.819 38.9082 160.712 39.5109 160.712C40.0122 160.712 40.4762 160.795 40.9029 160.96C41.3295 161.12 41.6975 161.357 42.0069 161.672C42.3162 161.987 42.5562 162.373 42.7269 162.832C42.9029 163.285 42.9909 163.803 42.9909 164.384C42.9909 164.651 42.9615 164.829 42.9029 164.92C42.8442 165.011 42.7375 165.056 42.5829 165.056H37.3429ZM55.9651 160.84L53.3491 169H51.9811C51.8211 169 51.7091 168.896 51.6451 168.688L50.0211 163.608C49.9785 163.464 49.9385 163.32 49.9011 163.176C49.8691 163.032 49.8398 162.891 49.8131 162.752C49.7545 163.04 49.6825 163.328 49.5971 163.616L47.9491 168.688C47.8905 168.896 47.7651 169 47.5731 169H46.2691L43.6531 160.84H45.0131C45.1465 160.84 45.2558 160.875 45.3411 160.944C45.4318 161.008 45.4905 161.085 45.5171 161.176L46.8771 165.928C46.9305 166.147 46.9758 166.36 47.0131 166.568C47.0558 166.771 47.0931 166.973 47.1251 167.176C47.1785 166.973 47.2345 166.771 47.2931 166.568C47.3518 166.36 47.4131 166.147 47.4771 165.928L49.0051 161.152C49.0318 161.056 49.0851 160.979 49.1651 160.92C49.2505 160.856 49.3518 160.824 49.4691 160.824H50.2211C50.3438 160.824 50.4478 160.856 50.5331 160.92C50.6185 160.979 50.6745 161.056 50.7011 161.152L52.1891 165.928C52.2531 166.147 52.3118 166.36 52.3651 166.568C52.4238 166.776 52.4771 166.984 52.5251 167.192C52.5625 166.989 52.6025 166.784 52.6451 166.576C52.6878 166.368 52.7385 166.152 52.7971 165.928L54.1811 161.176C54.2131 161.08 54.2718 161 54.3571 160.936C54.4425 160.872 54.5465 160.84 54.6691 160.84H55.9651ZM61.4705 165.432C60.8572 165.453 60.3398 165.504 59.9185 165.584C59.4972 165.659 59.1558 165.757 58.8945 165.88C58.6332 165.997 58.4438 166.139 58.3265 166.304C58.2145 166.469 58.1585 166.651 58.1585 166.848C58.1585 167.04 58.1878 167.205 58.2465 167.344C58.3105 167.477 58.3958 167.589 58.5025 167.68C58.6145 167.765 58.7425 167.829 58.8865 167.872C59.0358 167.909 59.1985 167.928 59.3745 167.928C59.8225 167.928 60.2065 167.845 60.5265 167.68C60.8518 167.509 61.1665 167.264 61.4705 166.944V165.432ZM56.9105 161.976C57.8332 161.117 58.9318 160.688 60.2065 160.688C60.6758 160.688 61.0918 160.765 61.4545 160.92C61.8225 161.069 62.1292 161.283 62.3745 161.56C62.6252 161.837 62.8145 162.168 62.9425 162.552C63.0758 162.931 63.1425 163.352 63.1425 163.816V169H62.3745C62.2092 169 62.0838 168.976 61.9985 168.928C61.9132 168.875 61.8412 168.771 61.7825 168.616L61.6145 167.952C61.4065 168.139 61.2012 168.307 60.9985 168.456C60.7958 168.6 60.5852 168.723 60.3665 168.824C60.1532 168.925 59.9212 169 59.6705 169.048C59.4252 169.101 59.1532 169.128 58.8545 169.128C58.5238 169.128 58.2145 169.083 57.9265 168.992C57.6438 168.901 57.3985 168.765 57.1905 168.584C56.9825 168.397 56.8172 168.168 56.6945 167.896C56.5772 167.624 56.5185 167.304 56.5185 166.936C56.5185 166.621 56.6012 166.315 56.7665 166.016C56.9372 165.717 57.2145 165.451 57.5985 165.216C57.9878 164.976 58.4972 164.779 59.1265 164.624C59.7612 164.469 60.5425 164.381 61.4705 164.36V163.816C61.4705 163.229 61.3452 162.792 61.0945 162.504C60.8438 162.216 60.4758 162.072 59.9905 162.072C59.6598 162.072 59.3825 162.115 59.1585 162.2C58.9345 162.28 58.7398 162.368 58.5745 162.464C58.4092 162.56 58.2625 162.651 58.1345 162.736C58.0065 162.816 57.8705 162.856 57.7265 162.856C57.6092 162.856 57.5078 162.827 57.4225 162.768C57.3425 162.704 57.2758 162.627 57.2225 162.536L56.9105 161.976ZM66.7814 162.352C67.0374 161.835 67.3467 161.429 67.7094 161.136C68.072 160.837 68.5067 160.688 69.0134 160.688C69.1894 160.688 69.3547 160.709 69.5094 160.752C69.664 160.789 69.8027 160.848 69.9254 160.928L69.8054 162.224C69.784 162.315 69.7494 162.379 69.7014 162.416C69.6587 162.448 69.6 162.464 69.5254 162.464C69.4454 162.464 69.3307 162.451 69.1814 162.424C69.032 162.392 68.8747 162.376 68.7094 162.376C68.4694 162.376 68.256 162.411 68.0694 162.48C67.888 162.549 67.7227 162.651 67.5734 162.784C67.4294 162.917 67.3014 163.08 67.1894 163.272C67.0774 163.464 66.9734 163.683 66.8774 163.928V169H65.1574V160.84H66.1574C66.3387 160.84 66.464 160.875 66.5334 160.944C66.6027 161.008 66.6507 161.123 66.6774 161.288L66.7814 162.352ZM76.006 162.848C75.766 162.539 75.502 162.323 75.214 162.2C74.926 162.077 74.614 162.016 74.278 162.016C73.606 162.016 73.0807 162.264 72.702 162.76C72.3233 163.251 72.134 163.979 72.134 164.944C72.134 165.445 72.1767 165.875 72.262 166.232C72.3473 166.584 72.47 166.872 72.63 167.096C72.79 167.32 72.9847 167.483 73.214 167.584C73.4433 167.685 73.702 167.736 73.99 167.736C74.4273 167.736 74.8033 167.643 75.118 167.456C75.438 167.264 75.734 166.995 76.006 166.648V162.848ZM77.726 157.16V169H76.686C76.4567 169 76.31 168.891 76.246 168.672L76.094 167.784C75.7527 168.184 75.3633 168.507 74.926 168.752C74.494 168.997 73.99 169.12 73.414 169.12C72.9553 169.12 72.5393 169.029 72.166 168.848C71.7927 168.661 71.4727 168.392 71.206 168.04C70.9393 167.688 70.7313 167.253 70.582 166.736C70.438 166.213 70.366 165.616 70.366 164.944C70.366 164.336 70.446 163.773 70.606 163.256C70.7713 162.739 71.006 162.291 71.31 161.912C71.614 161.528 71.982 161.229 72.414 161.016C72.8513 160.797 73.3393 160.688 73.878 160.688C74.358 160.688 74.766 160.765 75.102 160.92C75.438 161.069 75.7393 161.28 76.006 161.552V157.16H77.726ZM84.7013 162.32C84.6586 162.395 84.6106 162.448 84.5573 162.48C84.5039 162.512 84.4373 162.528 84.3573 162.528C84.2666 162.528 84.1679 162.501 84.0613 162.448C83.9546 162.389 83.8293 162.325 83.6853 162.256C83.5413 162.187 83.3706 162.125 83.1733 162.072C82.9813 162.013 82.7546 161.984 82.4933 161.984C82.2799 161.984 82.0853 162.011 81.9093 162.064C81.7386 162.112 81.5919 162.184 81.4693 162.28C81.3519 162.371 81.2613 162.48 81.1973 162.608C81.1333 162.731 81.1013 162.864 81.1013 163.008C81.1013 163.2 81.1599 163.36 81.2773 163.488C81.3946 163.616 81.5493 163.728 81.7413 163.824C81.9333 163.915 82.1519 163.997 82.3973 164.072C82.6426 164.147 82.8933 164.227 83.1493 164.312C83.4053 164.397 83.6559 164.496 83.9013 164.608C84.1466 164.72 84.3653 164.859 84.5573 165.024C84.7493 165.184 84.9039 165.381 85.0213 165.616C85.1386 165.845 85.1973 166.125 85.1973 166.456C85.1973 166.84 85.1279 167.195 84.9893 167.52C84.8506 167.845 84.6479 168.128 84.3813 168.368C84.1146 168.608 83.7813 168.795 83.3813 168.928C82.9866 169.061 82.5333 169.128 82.0213 169.128C81.7386 169.128 81.4639 169.101 81.1973 169.048C80.9359 169 80.6853 168.933 80.4453 168.848C80.2106 168.757 79.9893 168.651 79.7812 168.528C79.5786 168.405 79.3973 168.272 79.2373 168.128L79.6373 167.472C79.6853 167.392 79.7439 167.331 79.8133 167.288C79.8879 167.24 79.9786 167.216 80.0853 167.216C80.1973 167.216 80.3066 167.253 80.4133 167.328C80.5253 167.397 80.6533 167.475 80.7973 167.56C80.9466 167.645 81.1253 167.725 81.3333 167.8C81.5413 167.869 81.7999 167.904 82.1093 167.904C82.3653 167.904 82.5866 167.875 82.7733 167.816C82.9599 167.752 83.1146 167.667 83.2373 167.56C83.3599 167.453 83.4506 167.333 83.5093 167.2C83.5679 167.061 83.5973 166.915 83.5973 166.76C83.5973 166.552 83.5386 166.381 83.4213 166.248C83.3039 166.115 83.1466 166 82.9493 165.904C82.7573 165.808 82.5359 165.723 82.2853 165.648C82.0399 165.573 81.7893 165.493 81.5333 165.408C81.2773 165.323 81.0239 165.224 80.7733 165.112C80.5279 165 80.3066 164.859 80.1093 164.688C79.9173 164.512 79.7626 164.301 79.6453 164.056C79.5279 163.805 79.4693 163.501 79.4693 163.144C79.4693 162.819 79.5333 162.509 79.6613 162.216C79.7946 161.923 79.9866 161.664 80.2373 161.44C80.4933 161.216 80.8053 161.04 81.1733 160.912C81.5466 160.779 81.9759 160.712 82.4613 160.712C83.0106 160.712 83.5093 160.8 83.9573 160.976C84.4053 161.152 84.7813 161.392 85.0853 161.696L84.7013 162.32ZM98.31 167.488L98.302 169H91.118V157.48H98.302V158.992H92.998V162.464H97.238V163.928H92.998V167.488H98.31ZM104.314 165.432C103.701 165.453 103.184 165.504 102.762 165.584C102.341 165.659 102 165.757 101.738 165.88C101.477 165.997 101.288 166.139 101.17 166.304C101.058 166.469 101.002 166.651 101.002 166.848C101.002 167.04 101.032 167.205 101.09 167.344C101.154 167.477 101.24 167.589 101.346 167.68C101.458 167.765 101.586 167.829 101.73 167.872C101.88 167.909 102.042 167.928 102.218 167.928C102.666 167.928 103.05 167.845 103.37 167.68C103.696 167.509 104.01 167.264 104.314 166.944V165.432ZM99.7543 161.976C100.677 161.117 101.776 160.688 103.05 160.688C103.52 160.688 103.936 160.765 104.298 160.92C104.666 161.069 104.973 161.283 105.218 161.56C105.469 161.837 105.658 162.168 105.786 162.552C105.92 162.931 105.986 163.352 105.986 163.816V169H105.218C105.053 169 104.928 168.976 104.842 168.928C104.757 168.875 104.685 168.771 104.626 168.616L104.458 167.952C104.25 168.139 104.045 168.307 103.842 168.456C103.64 168.6 103.429 168.723 103.21 168.824C102.997 168.925 102.765 169 102.514 169.048C102.269 169.101 101.997 169.128 101.698 169.128C101.368 169.128 101.058 169.083 100.77 168.992C100.488 168.901 100.242 168.765 100.034 168.584C99.8263 168.397 99.6609 168.168 99.5383 167.896C99.4209 167.624 99.3623 167.304 99.3623 166.936C99.3623 166.621 99.4449 166.315 99.6103 166.016C99.7809 165.717 100.058 165.451 100.442 165.216C100.832 164.976 101.341 164.779 101.97 164.624C102.605 164.469 103.386 164.381 104.314 164.36V163.816C104.314 163.229 104.189 162.792 103.938 162.504C103.688 162.216 103.32 162.072 102.834 162.072C102.504 162.072 102.226 162.115 102.002 162.2C101.778 162.28 101.584 162.368 101.418 162.464C101.253 162.56 101.106 162.651 100.978 162.736C100.85 162.816 100.714 162.856 100.57 162.856C100.453 162.856 100.352 162.827 100.266 162.768C100.186 162.704 100.12 162.627 100.066 162.536L99.7543 161.976ZM109.625 162.352C109.881 161.835 110.19 161.429 110.553 161.136C110.916 160.837 111.35 160.688 111.857 160.688C112.033 160.688 112.198 160.709 112.353 160.752C112.508 160.789 112.646 160.848 112.769 160.928L112.649 162.224C112.628 162.315 112.593 162.379 112.545 162.416C112.502 162.448 112.444 162.464 112.369 162.464C112.289 162.464 112.174 162.451 112.025 162.424C111.876 162.392 111.718 162.376 111.553 162.376C111.313 162.376 111.1 162.411 110.913 162.48C110.732 162.549 110.566 162.651 110.417 162.784C110.273 162.917 110.145 163.08 110.033 163.272C109.921 163.464 109.817 163.683 109.721 163.928V169H108.001V160.84H109.001C109.182 160.84 109.308 160.875 109.377 160.944C109.446 161.008 109.494 161.123 109.521 161.288L109.625 162.352ZM115.515 161.92C115.691 161.739 115.873 161.576 116.059 161.432C116.251 161.283 116.454 161.155 116.667 161.048C116.881 160.941 117.107 160.859 117.347 160.8C117.587 160.741 117.849 160.712 118.131 160.712C118.579 160.712 118.971 160.787 119.307 160.936C119.649 161.085 119.934 161.296 120.163 161.568C120.398 161.84 120.574 162.168 120.691 162.552C120.809 162.931 120.867 163.349 120.867 163.808V169H119.155V163.808C119.155 163.259 119.027 162.832 118.771 162.528C118.521 162.224 118.137 162.072 117.619 162.072C117.235 162.072 116.878 162.16 116.547 162.336C116.222 162.512 115.915 162.752 115.627 163.056V169H113.907V160.84H114.947C115.182 160.84 115.331 160.949 115.395 161.168L115.515 161.92ZM128.228 164C128.228 163.712 128.185 163.445 128.1 163.2C128.02 162.949 127.9 162.733 127.74 162.552C127.58 162.365 127.38 162.221 127.14 162.12C126.905 162.013 126.633 161.96 126.324 161.96C125.7 161.96 125.209 162.139 124.852 162.496C124.495 162.853 124.268 163.355 124.172 164H128.228ZM124.124 165.056C124.145 165.52 124.217 165.923 124.34 166.264C124.463 166.6 124.625 166.88 124.828 167.104C125.036 167.328 125.281 167.496 125.564 167.608C125.852 167.715 126.172 167.768 126.524 167.768C126.86 167.768 127.151 167.731 127.396 167.656C127.641 167.576 127.855 167.491 128.036 167.4C128.217 167.304 128.372 167.219 128.5 167.144C128.628 167.064 128.745 167.024 128.852 167.024C128.991 167.024 129.097 167.077 129.172 167.184L129.66 167.816C129.457 168.056 129.228 168.259 128.972 168.424C128.716 168.589 128.444 168.725 128.156 168.832C127.868 168.933 127.572 169.005 127.268 169.048C126.964 169.096 126.668 169.12 126.38 169.12C125.815 169.12 125.289 169.027 124.804 168.84C124.324 168.648 123.905 168.368 123.548 168C123.196 167.632 122.919 167.176 122.716 166.632C122.519 166.088 122.42 165.461 122.42 164.752C122.42 164.187 122.508 163.659 122.684 163.168C122.865 162.677 123.121 162.251 123.452 161.888C123.788 161.525 124.193 161.24 124.668 161.032C125.148 160.819 125.689 160.712 126.292 160.712C126.793 160.712 127.257 160.795 127.684 160.96C128.111 161.12 128.479 161.357 128.788 161.672C129.097 161.987 129.337 162.373 129.508 162.832C129.684 163.285 129.772 163.803 129.772 164.384C129.772 164.651 129.743 164.829 129.684 164.92C129.625 165.011 129.519 165.056 129.364 165.056H124.124ZM136.584 162.848C136.344 162.539 136.08 162.323 135.792 162.2C135.504 162.077 135.192 162.016 134.856 162.016C134.184 162.016 133.659 162.264 133.28 162.76C132.901 163.251 132.712 163.979 132.712 164.944C132.712 165.445 132.755 165.875 132.84 166.232C132.925 166.584 133.048 166.872 133.208 167.096C133.368 167.32 133.563 167.483 133.792 167.584C134.021 167.685 134.28 167.736 134.568 167.736C135.005 167.736 135.381 167.643 135.696 167.456C136.016 167.264 136.312 166.995 136.584 166.648V162.848ZM138.304 157.16V169H137.264C137.035 169 136.888 168.891 136.824 168.672L136.672 167.784C136.331 168.184 135.941 168.507 135.504 168.752C135.072 168.997 134.568 169.12 133.992 169.12C133.533 169.12 133.117 169.029 132.744 168.848C132.371 168.661 132.051 168.392 131.784 168.04C131.517 167.688 131.309 167.253 131.16 166.736C131.016 166.213 130.944 165.616 130.944 164.944C130.944 164.336 131.024 163.773 131.184 163.256C131.349 162.739 131.584 162.291 131.888 161.912C132.192 161.528 132.56 161.229 132.992 161.016C133.429 160.797 133.917 160.688 134.456 160.688C134.936 160.688 135.344 160.765 135.68 160.92C136.016 161.069 136.317 161.28 136.584 161.552V157.16H138.304ZM151.226 160.84L146.73 171.32C146.671 171.443 146.599 171.539 146.514 171.608C146.434 171.677 146.308 171.712 146.138 171.712H144.866L146.37 168.448L143.042 160.84H144.538C144.682 160.84 144.791 160.875 144.866 160.944C144.946 161.008 145.004 161.085 145.042 161.176L146.986 165.808C147.034 165.941 147.076 166.075 147.114 166.208C147.156 166.336 147.196 166.469 147.234 166.608C147.276 166.469 147.319 166.333 147.362 166.2C147.404 166.067 147.452 165.933 147.506 165.8L149.37 161.176C149.407 161.08 149.468 161 149.554 160.936C149.644 160.872 149.743 160.84 149.85 160.84H151.226ZM157.463 164C157.463 163.712 157.42 163.445 157.335 163.2C157.255 162.949 157.135 162.733 156.975 162.552C156.815 162.365 156.615 162.221 156.375 162.12C156.14 162.013 155.868 161.96 155.559 161.96C154.935 161.96 154.444 162.139 154.087 162.496C153.729 162.853 153.503 163.355 153.407 164H157.463ZM153.359 165.056C153.38 165.52 153.452 165.923 153.575 166.264C153.697 166.6 153.86 166.88 154.063 167.104C154.271 167.328 154.516 167.496 154.799 167.608C155.087 167.715 155.407 167.768 155.759 167.768C156.095 167.768 156.385 167.731 156.631 167.656C156.876 167.576 157.089 167.491 157.271 167.4C157.452 167.304 157.607 167.219 157.735 167.144C157.863 167.064 157.98 167.024 158.087 167.024C158.225 167.024 158.332 167.077 158.407 167.184L158.895 167.816C158.692 168.056 158.463 168.259 158.207 168.424C157.951 168.589 157.679 168.725 157.391 168.832C157.103 168.933 156.807 169.005 156.503 169.048C156.199 169.096 155.903 169.12 155.615 169.12C155.049 169.12 154.524 169.027 154.039 168.84C153.559 168.648 153.14 168.368 152.783 168C152.431 167.632 152.153 167.176 151.951 166.632C151.753 166.088 151.655 165.461 151.655 164.752C151.655 164.187 151.743 163.659 151.919 163.168C152.1 162.677 152.356 162.251 152.687 161.888C153.023 161.525 153.428 161.24 153.903 161.032C154.383 160.819 154.924 160.712 155.527 160.712C156.028 160.712 156.492 160.795 156.919 160.96C157.345 161.12 157.713 161.357 158.023 161.672C158.332 161.987 158.572 162.373 158.743 162.832C158.919 163.285 159.007 163.803 159.007 164.384C159.007 164.651 158.977 164.829 158.919 164.92C158.86 165.011 158.753 165.056 158.599 165.056H153.359ZM163.148 169.128C162.471 169.128 161.948 168.939 161.58 168.56C161.218 168.176 161.036 167.637 161.036 166.944V162.192H160.14C160.044 162.192 159.962 162.163 159.892 162.104C159.823 162.04 159.788 161.947 159.788 161.824V161.128L161.108 160.936L161.484 158.576C161.511 158.485 161.556 158.413 161.62 158.36C161.684 158.301 161.77 158.272 161.876 158.272H162.756V160.952H165.02V162.192H162.756V166.824C162.756 167.117 162.828 167.341 162.972 167.496C163.116 167.651 163.308 167.728 163.548 167.728C163.682 167.728 163.796 167.712 163.892 167.68C163.988 167.643 164.071 167.605 164.14 167.568C164.21 167.525 164.268 167.488 164.316 167.456C164.37 167.419 164.42 167.4 164.468 167.4C164.564 167.4 164.642 167.453 164.7 167.56L165.212 168.4C164.946 168.635 164.631 168.816 164.268 168.944C163.906 169.067 163.532 169.128 163.148 169.128ZM168.352 157.48V162.056C168.352 162.536 168.331 163.008 168.288 163.472C168.245 163.931 168.189 164.427 168.12 164.96H166.96C166.885 164.427 166.827 163.931 166.784 163.472C166.747 163.008 166.728 162.536 166.728 162.056V157.48H168.352ZM166.4 168.008C166.4 167.853 166.427 167.709 166.48 167.576C166.539 167.437 166.619 167.317 166.72 167.216C166.821 167.115 166.939 167.035 167.072 166.976C167.205 166.917 167.352 166.888 167.512 166.888C167.667 166.888 167.811 166.917 167.944 166.976C168.083 167.035 168.2 167.115 168.296 167.216C168.397 167.317 168.477 167.437 168.536 167.576C168.595 167.709 168.624 167.853 168.624 168.008C168.624 168.168 168.595 168.315 168.536 168.448C168.477 168.581 168.397 168.699 168.296 168.8C168.2 168.901 168.083 168.979 167.944 169.032C167.811 169.091 167.667 169.12 167.512 169.12C167.352 169.12 167.205 169.091 167.072 169.032C166.939 168.979 166.821 168.901 166.72 168.8C166.619 168.699 166.539 168.581 166.48 168.448C166.427 168.315 166.4 168.168 166.4 168.008Z" fill="black"/>
<defs>
<clipPath id="clip0_528_8681">
<rect width="156" height="126" fill="white" transform="translate(7)"/>
</clipPath>
</defs>
</svg>
