<svg width="30" height="30" viewBox="0 0 30 30" fill="none" xmlns="http://www.w3.org/2000/svg">
<path fill-rule="evenodd" clip-rule="evenodd" d="M0.333252 14.9999C0.333252 6.89992 6.89992 0.333252 14.9999 0.333252C23.0999 0.333252 29.6666 6.89992 29.6666 14.9999C29.6666 23.0999 23.0999 29.6666 14.9999 29.6666C6.89992 29.6666 0.333252 23.0999 0.333252 14.9999ZM9.66658 6.99992C9.31296 6.99992 8.97382 7.14039 8.72378 7.39044C8.47373 7.64049 8.33325 7.97963 8.33325 8.33325C8.33325 8.68687 8.47373 9.02601 8.72378 9.27606C8.97382 9.52611 9.31296 9.66658 9.66658 9.66658H13.6666C14.1199 9.66658 14.8293 9.81325 15.3866 10.2159C15.6399 10.3973 15.8826 10.6439 16.0599 10.9999H9.66259C9.30896 10.9999 8.96982 11.1404 8.71978 11.3904C8.46973 11.6405 8.32925 11.9796 8.32925 12.3333C8.32925 12.6869 8.46973 13.026 8.71978 13.2761C8.96982 13.5261 9.30896 13.6666 9.66259 13.6666H16.0599C15.9044 13.9796 15.6735 14.249 15.3879 14.4506C14.8805 14.7986 14.2818 14.9896 13.6666 14.9999H9.66259C9.38622 14.9998 9.11664 15.0855 8.89114 15.2453C8.66564 15.4051 8.49536 15.631 8.40385 15.8917C8.31233 16.1525 8.30411 16.4353 8.38032 16.7009C8.45654 16.9666 8.61341 17.202 8.82925 17.3746L15.4999 22.7079C15.6367 22.8174 15.7936 22.8988 15.9619 22.9476C16.1301 22.9963 16.3063 23.0115 16.4803 22.9922C16.6544 22.9729 16.823 22.9194 16.9764 22.835C17.1299 22.7505 17.2652 22.6367 17.3746 22.4999C17.484 22.3632 17.5654 22.2062 17.6142 22.038C17.663 21.8698 17.6782 21.6936 17.6588 21.5195C17.6395 21.3454 17.5861 21.1769 17.5017 21.0234C17.4172 20.87 17.3033 20.7347 17.1666 20.6252L13.4639 17.6666H13.6639C14.5453 17.6666 15.8359 17.4133 16.9439 16.6146C17.9309 15.9079 18.6155 14.8553 18.8612 13.6666H20.3333C20.6869 13.6666 21.026 13.5261 21.2761 13.2761C21.5261 13.026 21.6666 12.6869 21.6666 12.3333C21.6666 11.9796 21.5261 11.6405 21.2761 11.3904C21.026 11.1404 20.6869 10.9999 20.3333 10.9999H18.8612C18.7614 10.5348 18.5967 10.0859 18.3719 9.66658H20.3333C20.6869 9.66658 21.026 9.52611 21.2761 9.27606C21.5261 9.02601 21.6666 8.68687 21.6666 8.33325C21.6666 7.97963 21.5261 7.64049 21.2761 7.39044C21.026 7.14039 20.6869 6.99992 20.3333 6.99992H9.66658Z" fill="#18181B"/>
</svg>
