<svg width="41" height="40" viewBox="0 0 41 40" fill="none" xmlns="http://www.w3.org/2000/svg">
<g clip-path="url(#clip0_516_9169)">
<path d="M26.6822 7.96642C26.9773 7.96642 27.2742 7.9331 27.5646 7.86744C29.7063 7.38266 31.0543 5.24586 30.5697 3.10407C30.1559 1.27645 28.5601 0 26.6888 0C26.3936 0 26.0967 0.0332383 25.8063 0.09898C23.6647 0.583672 22.3167 2.72048 22.8012 4.86235C23.215 6.68997 24.8109 7.96642 26.6822 7.96642ZM25.9596 0.776078C26.1997 0.721688 26.445 0.694167 26.6888 0.694167C28.2335 0.694167 29.551 1.74816 29.8926 3.25736C30.2927 5.02577 29.1796 6.79017 27.4114 7.19034C27.1713 7.24473 26.9259 7.27225 26.6822 7.27225C25.1374 7.27225 23.8199 6.21826 23.4784 4.70914C23.0781 2.94057 24.1913 1.17616 25.9596 0.776078Z" fill="#C18F2C"/>
<path d="M21.916 19.7302H11.8435V16.6758H15.0721C15.3975 16.6758 15.6623 16.9404 15.6623 17.2659V18.1405C15.6623 18.3323 15.8176 18.4876 16.0094 18.4876C16.2012 18.4876 16.3565 18.3323 16.3565 18.1405V17.2659C16.3565 16.5578 15.7803 15.9816 15.0721 15.9816H11.8435V15.8914C11.8435 15.1831 11.2673 14.607 10.5592 14.607H9.99685C9.28872 14.607 8.71256 15.1831 8.71256 15.8914V19.7303H8.32424C7.67703 19.7303 7.15053 20.2568 7.15053 20.904V29.9346C7.15053 30.5818 7.67703 31.1083 8.32424 31.1083H15.4604V35.9627C15.4604 36.7705 14.8033 37.4275 13.9955 37.4275C13.1877 37.4275 12.5306 36.7704 12.5306 35.9627V34.6507C12.5306 34.4589 12.3752 34.3036 12.1835 34.3036H6.87302C6.68127 34.3036 6.52594 34.4589 6.52594 34.6507C6.52594 34.8424 6.68127 34.9978 6.87302 34.9978H11.8366V35.9627C11.8366 37.1532 12.805 38.1217 13.9957 38.1217C15.1861 38.1217 16.1547 37.1532 16.1547 35.9627V31.1083H20.5102C21.1339 31.1083 21.7074 30.6053 21.7889 29.9871L22.9789 20.9422C23.0202 20.6283 22.9292 20.3174 22.7291 20.0893C22.529 19.861 22.2326 19.7302 21.916 19.7302ZM9.40689 15.8913C9.40689 15.5659 9.67158 15.3011 9.99702 15.3011H10.5594C10.8847 15.3011 11.1495 15.5658 11.1495 15.8913V19.7302H9.40698L9.40689 15.8913ZM21.1006 29.8964C21.0643 30.1722 20.7884 30.4141 20.5101 30.4141H8.3244C8.05997 30.4141 7.84486 30.1989 7.84486 29.9345V28.3529H15.7205C15.9123 28.3529 16.0676 28.1975 16.0676 28.0058C16.0676 27.814 15.9123 27.6587 15.7205 27.6587H7.84486V20.9039C7.84486 20.6395 8.05997 20.4243 8.3244 20.4243H21.9161C22.0345 20.4243 22.138 20.4679 22.2072 20.5468C22.2765 20.6259 22.3061 20.734 22.2906 20.8515L22.029 22.8404H9.26888C9.07712 22.8404 8.92179 22.9957 8.92179 23.1875C8.92179 23.3792 9.07712 23.5345 9.26888 23.5345H21.9377L21.1006 29.8964Z" fill="#C18F2C"/>
<path d="M34.7094 21.1123L32.436 11.0672C31.9584 8.95818 29.8547 7.63085 27.7452 8.10795C26.0554 8.49048 24.8279 9.92601 24.7001 11.6362L18.5525 15.2475C18.0926 15.5176 17.7653 15.9507 17.6311 16.4671C17.497 16.9834 17.5719 17.5211 17.8421 17.9811C18.1993 18.589 18.8597 18.9665 19.5657 18.9665C19.9199 18.9665 20.2691 18.8713 20.576 18.6911L25.469 15.8168L27.0594 22.8437C27.3064 23.9349 27.9964 24.8549 28.9672 25.3983L28.9675 37.3639C28.9675 38.8175 30.15 40 31.6036 40C33.0572 40 34.2397 38.8175 34.2397 37.3639V24.1635C34.2397 24.1126 34.2379 24.0621 34.235 24.0119C34.7666 23.1379 34.9359 22.1134 34.7094 21.1123ZM20.2245 18.0924C20.0241 18.2101 19.7964 18.2723 19.5658 18.2723C19.1048 18.2723 18.6737 18.0259 18.4407 17.6294C18.2645 17.3293 18.2156 16.9785 18.3031 16.6416C18.3906 16.3048 18.6041 16.0222 18.9042 15.8459L27.1098 11.0257C27.31 10.908 27.5376 10.8458 27.7683 10.8458C28.2294 10.8458 28.6605 11.0925 28.8936 11.4893C29.0699 11.7892 29.1187 12.1399 29.0312 12.4767C28.9435 12.8135 28.73 13.0961 28.4298 13.2725L20.2245 18.0924ZM27.7365 22.6903L26.0973 15.4477L28.7813 13.871C29.2414 13.6008 29.5687 13.1677 29.7029 12.6514C29.8372 12.1351 29.7624 11.5975 29.4921 11.1376C29.1349 10.5294 28.4743 10.1517 27.7683 10.1517C27.4142 10.1517 27.0649 10.247 26.7582 10.4272L25.4702 11.1838C25.7498 10.0053 26.6776 9.06133 27.8986 8.78497C29.6345 8.39215 31.366 9.48469 31.759 11.2204L34.0324 21.2654C34.1628 21.8416 34.1335 22.4273 33.9549 22.9736C33.5193 22.1163 32.6293 21.5273 31.6037 21.5273C30.15 21.5273 28.9673 22.7099 28.9673 24.1635V24.5731C28.3476 24.1171 27.9095 23.4551 27.7365 22.6903ZM33.5456 37.3639C33.5456 38.3374 32.8256 39.1457 31.8901 39.2846V33.8042C31.8901 33.6124 31.7348 33.4571 31.5431 33.4571C31.3513 33.4571 31.196 33.6124 31.196 33.8042V39.2626C30.3203 39.0746 29.6617 38.295 29.6617 37.364L29.6614 24.1636C29.6614 23.0927 30.5327 22.2215 31.6037 22.2215C32.6745 22.2215 33.5456 23.0927 33.5456 24.1636V37.3639Z" fill="#C18F2C"/>
<path d="M31.543 29.047C31.3512 29.047 31.1959 29.2024 31.1959 29.3941V31.9258C31.1959 32.1175 31.3512 32.2729 31.543 32.2729C31.7347 32.2729 31.8901 32.1175 31.8901 31.9258V29.3941C31.8901 29.2024 31.7347 29.047 31.543 29.047Z" fill="#C18F2C"/>
</g>
<defs>
<clipPath id="clip0_516_9169">
<rect width="40" height="40" fill="white" transform="translate(0.666687)"/>
</clipPath>
</defs>
</svg>
