<svg width="40" height="40" viewBox="0 0 40 40" fill="none" xmlns="http://www.w3.org/2000/svg">
<path fill-rule="evenodd" clip-rule="evenodd" d="M11.6062 7.54004C11.0198 8.08012 10.5498 8.73817 10.3068 9.16342L8.85974 8.33658C9.17232 7.78958 9.74399 6.98933 10.4771 6.31413C11.1914 5.65623 12.1866 5 13.3333 5H27.5V6.66667H13.3333C12.8133 6.66667 12.2113 6.98266 11.6062 7.54004Z" fill="#C18F2C"/>
<path fill-rule="evenodd" clip-rule="evenodd" d="M19.1667 13.3333V6.25H20.8333V13.3333H19.1667Z" fill="#C18F2C"/>
<path fill-rule="evenodd" clip-rule="evenodd" d="M8.33334 20C8.33334 17.2386 10.5719 15 13.3333 15H26.6667C29.4281 15 31.6667 17.2386 31.6667 20V34.1667C31.6667 35.5474 30.5474 36.6667 29.1667 36.6667H10.8333C9.45259 36.6667 8.33334 35.5474 8.33334 34.1667V20ZM13.3333 16.6667C11.4924 16.6667 10 18.1591 10 20V34.1667C10 34.6269 10.3731 35 10.8333 35H29.1667C29.6269 35 30 34.6269 30 34.1667V20C30 18.1591 28.5076 16.6667 26.6667 16.6667H13.3333Z" fill="#C18F2C"/>
<path fill-rule="evenodd" clip-rule="evenodd" d="M15 25H25V26.6667H15V25Z" fill="#C18F2C"/>
<path fill-rule="evenodd" clip-rule="evenodd" d="M19.1667 30.8333V20.8333H20.8333V30.8333H19.1667Z" fill="#C18F2C"/>
<path fill-rule="evenodd" clip-rule="evenodd" d="M14.1667 13.3333C14.1667 12.4128 14.9128 11.6667 15.8333 11.6667H24.1667C25.0872 11.6667 25.8333 12.4128 25.8333 13.3333V16.6667H14.1667V13.3333ZM24.1667 13.3333H15.8333V15H24.1667V13.3333Z" fill="#C18F2C"/>
</svg>
