<svg width="40" height="40" viewBox="0 0 40 40" fill="none" xmlns="http://www.w3.org/2000/svg">
<g clip-path="url(#clip0_516_9177)">
<path d="M36.7778 15.48C36.7517 11.6569 35.2512 8.06001 32.5528 5.35186C30.9181 3.71114 28.8874 2.4729 26.6802 1.7709L21.5994 0.154915C19.8716 -0.394549 18.0192 0.563886 17.4697 2.2916C17.1126 3.41445 17.3929 4.5896 18.1069 5.42598H17.1064C16.7787 5.42598 16.513 5.69163 16.513 6.01936V9.03159C15.5769 9.45006 14.7595 10.1165 14.1495 10.9818H13.2546C11.8462 10.9818 10.7004 12.1276 10.7004 13.5359V14.89C9.5649 15.268 8.74348 16.3399 8.74348 17.6009C8.74348 18.5217 9.18176 19.3417 9.8603 19.8645C9.18185 20.3873 8.74348 21.2072 8.74348 22.1281C8.74348 23.0489 9.18176 23.8688 9.8603 24.3916C9.18185 24.9145 8.74348 25.7344 8.74348 26.6552C8.74348 27.576 9.18176 28.396 9.8603 28.9188C9.18185 29.4416 8.74348 30.2616 8.74348 31.1824C8.74348 32.4433 9.5648 33.5152 10.7004 33.8932V38.0244C10.7004 39.1138 11.5867 40 12.676 40H25.096C26.1854 40 27.0716 39.1138 27.0716 38.0244V32.8245C30.2924 32.7305 33.4235 31.5731 35.9311 29.5402C36.1857 29.3338 36.2248 28.9602 36.0184 28.7056C35.8121 28.451 35.4383 28.4119 35.1837 28.6183C32.8868 30.4804 30.021 31.5434 27.0716 31.6371V18.5985C27.5694 18.8999 28.1089 19.1493 28.6874 19.3333C28.7473 19.3523 28.8078 19.3614 28.8674 19.3614C29.1189 19.3614 29.3524 19.2002 29.4328 18.9477C29.5321 18.6354 29.3594 18.3017 29.0472 18.2023C27.4336 17.6891 26.1165 16.5783 25.3386 15.0746C24.5605 13.5708 24.4146 11.854 24.9278 10.2405L25.7219 7.74361C25.8212 7.43131 25.6486 7.09756 25.3363 6.99824L19.9662 5.29033C18.8621 4.93914 18.2496 3.75532 18.6007 2.65128C18.9518 1.54724 20.1358 0.934698 21.2397 1.28579L26.3206 2.90178C28.347 3.54627 30.2114 4.68308 31.7122 6.18943C34.1897 8.67584 35.5672 11.9782 35.5911 15.488L35.5957 16.1597C35.5979 16.4861 35.8632 16.7491 36.189 16.7491C36.1904 16.7491 36.1917 16.7491 36.1931 16.7491C36.5208 16.7468 36.7846 16.4793 36.7825 16.1517L36.7778 15.48ZM17.6999 6.61273H20.0715V8.64937C19.6863 8.56995 19.2895 8.52814 18.8854 8.52814C18.4816 8.52814 18.0849 8.56986 17.6999 8.64937V6.61273ZM18.8854 9.71497C20.091 9.71497 21.2176 10.1749 22.0635 10.9818H15.7085C16.5541 10.1748 17.6804 9.71497 18.8854 9.71497ZM9.93032 17.6009C9.93032 16.68 10.6796 15.9307 11.6005 15.9307H14.0424C14.9633 15.9307 15.7126 16.68 15.7126 17.6009C15.7126 18.5218 14.9633 19.2711 14.0424 19.2711H11.6005C10.6795 19.2711 9.93032 18.5218 9.93032 17.6009ZM9.93032 22.1281C9.93032 21.2071 10.6796 20.4579 11.6005 20.4579H14.0424C14.9633 20.4579 15.7126 21.2071 15.7126 22.1281C15.7126 23.049 14.9633 23.7983 14.0424 23.7983H11.6005C10.6795 23.7983 9.93032 23.049 9.93032 22.1281ZM9.93032 26.6551C9.93032 25.7342 10.6796 24.9849 11.6005 24.9849H14.0424C14.9633 24.9849 15.7126 25.7342 15.7126 26.6551C15.7126 27.576 14.9633 28.3253 14.0424 28.3253H11.6005C10.6795 28.3253 9.93032 27.5761 9.93032 26.6551ZM9.93032 31.1823C9.93032 30.2614 10.6796 29.5122 11.6005 29.5122H14.0424C14.9633 29.5122 15.7126 30.2615 15.7126 31.1824C15.7126 32.1033 14.9633 32.8525 14.0424 32.8525H11.6005C10.6795 32.8525 9.93032 32.1032 9.93032 31.1823ZM25.8848 17.7078V38.0244C25.8848 38.4594 25.531 38.8133 25.096 38.8133H12.676C12.241 38.8133 11.8872 38.4594 11.8872 38.0244V34.0393H14.0423C15.6177 34.0393 16.8993 32.7577 16.8993 31.1823C16.8993 30.2615 16.461 29.4416 15.7824 28.9188C16.4609 28.396 16.8993 27.576 16.8993 26.6552C16.8993 25.7344 16.461 24.9145 15.7824 24.3916C16.4609 23.8688 16.8993 23.0489 16.8993 22.1281C16.8993 21.2072 16.461 20.3873 15.7824 19.8645C16.4609 19.3417 16.8993 18.5217 16.8993 17.6009C16.8993 16.0255 15.6177 14.7439 14.0423 14.7439H11.8872V13.536C11.8872 12.782 12.5006 12.1686 13.2546 12.1686H23.4432C23.4465 14.2809 24.3472 16.294 25.8848 17.7078ZM23.7967 9.88085C23.6906 10.2144 23.6111 10.5501 23.5532 10.8857C22.951 10.0671 22.1597 9.43435 21.2583 9.0315V6.94666L24.4111 7.94937L23.7967 9.88085Z" fill="#C18F2C"/>
<path d="M14.1398 7.41242C14.1398 7.20044 14.0267 7.00454 13.8431 6.89855L4.1077 1.27776C3.82397 1.11408 3.4611 1.21121 3.29715 1.49494C3.13329 1.77875 3.2306 2.14162 3.51432 2.30548L12.3597 7.41232L3.51432 12.5193C3.23051 12.6831 3.13329 13.0461 3.29715 13.3298C3.40706 13.5201 3.60652 13.6266 3.81156 13.6266C3.91225 13.6266 4.01431 13.6009 4.1077 13.547L13.8431 7.92628C14.0267 7.82029 14.1398 7.62439 14.1398 7.41242Z" fill="#C18F2C"/>
</g>
<defs>
<clipPath id="clip0_516_9177">
<rect width="40" height="40" fill="white"/>
</clipPath>
</defs>
</svg>
