<svg width="41" height="40" viewBox="0 0 41 40" fill="none" xmlns="http://www.w3.org/2000/svg">
<g clip-path="url(#clip0_516_9154)">
<path d="M32.1983 4.44872C31.9033 2.42405 30.4898 1.0752 28.3813 0.712069C25.2725 0.0799291 20.7246 0.354418 17.2904 0.755055C14.9046 1.03306 13.6051 2.43107 13.7266 4.41402C13.859 6.57833 14.0891 10.114 14.3025 11.2271C14.4901 12.2024 14.9597 13.1277 16.5147 13.6778C17.2784 13.948 18.1766 14.2021 18.9329 14.4601C19.8165 14.7616 21.8642 15.3829 22.7266 18.5526C23.8877 22.9433 25.605 32.0117 26.246 36.2666C26.3529 36.9764 26.4773 38.1218 26.8622 38.6047C27.3162 39.1746 28.1236 39.5846 29.095 39.6241C30.0981 39.6759 31.1032 39.6759 32.1063 39.6241C34.087 39.5428 34.47 38.0613 34.5012 36.3343C34.6119 30.2069 33.5303 19.6582 33.216 15.2721C32.9356 11.3596 32.7363 7.9113 32.1983 4.44872Z" fill="white"/>
<path d="M19.6782 14.7376C20.6764 15.1693 22.0579 16.0949 22.7265 18.5526C22.9298 19.3216 23.1504 20.2341 23.3791 21.2391C22.7381 21.0413 22.3435 20.9441 21.8362 20.7721C21.5292 20.6606 21.2561 20.4719 21.043 20.2244C20.83 19.9768 20.6842 19.6786 20.6197 19.3584C20.2264 17.4847 19.9623 16.3585 19.7077 15.134L19.6202 14.7126L19.6782 14.7376Z" fill="#E4E4E7"/>
<path d="M26.9649 38.7243C26.9287 38.6853 26.8945 38.6454 26.8622 38.6047C26.4773 38.1218 26.3529 36.9764 26.246 36.2666C26.2371 36.2072 26.2278 36.1468 26.2189 36.0851H34.5039C34.5039 36.1694 34.5026 36.2521 34.5012 36.3343C34.47 38.0613 34.0867 39.5428 32.1063 39.6241C31.1032 39.6759 30.0981 39.6759 29.095 39.6241C28.1925 39.5874 27.4324 39.2312 26.9649 38.7243Z" fill="#E4E4E7"/>
<path d="M24.7095 4.8745C24.823 6.66121 25.0502 9.66613 25.4642 11.6758C25.5283 11.9583 25.6831 12.2121 25.9049 12.3984C26.1267 12.5848 26.4034 12.6934 26.6927 12.7078C27.6067 12.7579 28.5226 12.7579 29.4365 12.7078C30.1185 12.6675 30.5796 12.1204 30.5817 11.4371C30.588 9.3811 30.2364 6.7101 29.8682 4.97003C29.7943 4.60596 29.6047 4.27552 29.3277 4.02795C29.0507 3.78037 28.7012 3.62893 28.3311 3.59618C27.5075 3.51372 26.6777 3.51372 25.8541 3.59618C25.1729 3.68046 24.6665 4.18926 24.7095 4.8745Z" fill="#E4E4E7"/>
<path d="M19.3827 15.2236C19.5777 16.1605 19.7887 17.0939 19.9916 18.0292C20.0538 18.3155 20.1154 18.6019 20.1764 18.8885C20.2227 19.1762 20.2905 19.46 20.3792 19.7375C20.5605 20.2382 20.9108 20.66 21.3697 20.93C21.6402 21.0671 21.9251 21.1736 22.2192 21.2474C22.5386 21.3434 22.8599 21.4336 23.1792 21.5304C23.5954 21.6568 23.7732 21.006 23.3584 20.8803C22.8656 20.7308 22.3432 20.6215 21.866 20.4266C21.6722 20.3428 21.4973 20.2205 21.3521 20.0672C21.2068 19.9139 21.0942 19.7328 21.0209 19.5347C20.9364 19.2646 20.8714 18.9887 20.8266 18.7092C20.7676 18.432 20.7081 18.1549 20.6479 17.8778C20.5449 17.405 20.4414 16.9324 20.3374 16.46C20.2338 15.9885 20.1313 15.5169 20.0328 15.0444C19.9444 14.6199 19.2943 14.7995 19.3827 15.2236Z" fill="#C18F2C"/>
<path d="M24.3724 4.87451C24.4895 6.71305 24.6362 8.55342 24.9007 10.3774C24.9646 10.8184 25.0367 11.2586 25.1248 11.6954C25.1675 11.9139 25.2533 12.1216 25.3772 12.3064C25.5012 12.4913 25.6607 12.6496 25.8465 12.772C26.2584 13.047 26.7345 13.0514 27.2114 13.067C27.7733 13.0859 28.3367 13.0874 28.8991 13.0687C29.3737 13.053 29.8589 13.0547 30.2599 12.7649C30.4356 12.6362 30.5831 12.4728 30.6933 12.2849C30.8035 12.097 30.874 11.8885 30.9004 11.6723C30.9395 11.1952 30.9354 10.7157 30.8881 10.2394C30.8618 9.7278 30.8212 9.21703 30.7703 8.70724C30.672 7.71759 30.5372 6.73019 30.363 5.75093C30.287 5.32445 30.2326 4.87268 30.0594 4.47261C29.891 4.08804 29.606 3.76616 29.2446 3.55249C28.8638 3.34853 28.4404 3.2369 28.0084 3.22659C27.5535 3.1947 27.0972 3.18697 26.6415 3.20341C26.2341 3.21633 25.7821 3.2138 25.3976 3.36271C25.1907 3.43757 25.0017 3.55473 24.8427 3.70673C24.6837 3.85872 24.5581 4.0422 24.4739 4.24546C24.3962 4.44524 24.3618 4.6593 24.3732 4.87338C24.3926 5.30549 25.067 5.30787 25.0475 4.87338C25.0345 4.72375 25.0618 4.57335 25.1266 4.43785C25.1914 4.30234 25.2913 4.18667 25.416 4.10287C25.6954 3.91688 26.0325 3.90789 26.3572 3.88991C26.7831 3.86631 27.2108 3.86407 27.6369 3.88036C27.986 3.87409 28.3341 3.92146 28.6688 4.02084C28.9789 4.13314 29.2375 4.35451 29.3962 4.64356C29.5665 4.95261 29.6028 5.33358 29.6668 5.67634C29.8268 6.53324 29.9526 7.39562 30.0496 8.26109C30.1514 9.17123 30.224 10.0862 30.2419 11.0019C30.2488 11.3601 30.284 11.7366 30.0548 12.0397C29.8509 12.3095 29.5548 12.3644 29.2363 12.38C28.7066 12.406 28.1758 12.412 27.6455 12.4029C27.4219 12.3991 27.1986 12.3925 26.9754 12.3829C26.7821 12.3879 26.5893 12.3614 26.4045 12.3044C26.2501 12.2453 26.113 12.1485 26.0057 12.0227C25.8984 11.897 25.8243 11.7464 25.7902 11.5846C25.7051 11.2062 25.6462 10.8201 25.5876 10.4368C25.3067 8.59514 25.1662 6.73103 25.0476 4.87296C25.0457 4.78416 25.0095 4.69955 24.9467 4.63674C24.8839 4.57394 24.7993 4.53779 24.7105 4.53582C24.6209 4.53634 24.5351 4.5722 24.4718 4.63562C24.4085 4.69904 24.3727 4.78489 24.3724 4.87451Z" fill="#C18F2C"/>
<path d="M32.5233 4.35909C32.4018 3.51521 32.0546 2.71983 31.5184 2.05698C30.9738 1.41515 30.2679 0.930222 29.4735 0.652222C28.6306 0.34149 27.6974 0.232481 26.8079 0.139767C25.781 0.0385911 24.7494 -0.00797193 23.7175 0.000274503C21.628 0.0166015 19.541 0.149181 17.4663 0.397399C16.5827 0.49826 15.7024 0.695067 14.9508 1.19516C14.322 1.6054 13.8432 2.20854 13.5864 2.91402C13.3103 3.6827 13.3928 4.47906 13.4434 5.27598C13.5012 6.18907 13.5623 7.10216 13.632 8.01525C13.6948 8.83745 13.7601 9.66036 13.8575 10.4792C13.9333 11.1189 14.0234 11.7558 14.3198 12.3371C14.7272 13.1353 15.4787 13.6427 16.2964 13.9553C17.1948 14.2987 18.1319 14.5382 19.0408 14.8521C19.4666 14.9876 19.8728 15.1786 20.2488 15.4201C20.7989 15.7797 21.2652 16.2535 21.6161 16.8092C22.0733 17.5273 22.3223 18.3224 22.5303 19.1411C22.7136 19.862 22.8844 20.586 23.0501 21.3114C23.441 23.028 23.8001 24.7521 24.1447 26.4785C24.7932 29.7281 25.4099 32.989 25.9072 36.2655C25.971 36.6869 26.0232 37.1083 26.1074 37.5262C26.188 37.9263 26.29 38.3667 26.5233 38.7093C27.0705 39.5147 28.0913 39.901 29.0291 39.9576C29.8661 40.0081 30.7074 40.009 31.5452 39.9817C32.4161 39.9536 33.3048 39.9011 33.9574 39.2479C34.4828 38.722 34.6855 37.9836 34.7763 37.2659C34.851 36.4858 34.8737 35.7016 34.8443 34.9184C34.8302 33.1657 34.7535 31.4137 34.6552 29.6646C34.4518 26.0404 34.1448 22.4227 33.839 18.8059C33.5228 15.0663 33.3375 11.3133 32.94 7.58188C32.8253 6.505 32.6887 5.43036 32.523 4.36007C32.4987 4.27421 32.4416 4.20137 32.364 4.15731C32.2864 4.11325 32.1945 4.10151 32.1084 4.12464C32.0233 4.15022 31.9514 4.20758 31.9075 4.2848C31.8636 4.36202 31.8512 4.45317 31.8728 4.53932C32.4934 8.54892 32.6578 12.6074 32.9845 16.6466C33.2506 19.9377 33.5482 23.2261 33.78 26.52C33.9081 28.3391 34.0199 30.1598 34.0937 31.9821C34.1575 33.559 34.2378 35.1591 34.1499 36.7366C34.1136 37.3828 34.0094 38.1204 33.6145 38.6239C33.1262 39.2462 32.3519 39.2817 31.6101 39.3068C30.7715 39.3348 29.9333 39.3286 29.0956 39.2879C28.3305 39.2506 27.3503 38.9297 26.9984 38.1793C26.8397 37.7872 26.735 37.3753 26.6873 36.9549C26.628 36.5925 26.5799 36.2281 26.5239 35.8651C26.4201 35.1923 26.3107 34.5205 26.1956 33.8497C25.9146 32.1934 25.616 30.5402 25.2996 28.8901C24.6759 25.6086 24.0286 22.3232 23.2119 19.0835C23.0026 18.253 22.7614 17.435 22.3311 16.6877C21.9725 16.0598 21.4922 15.5098 20.9184 15.0698C19.9132 14.3035 18.6286 14.0082 17.4476 13.6333C16.6152 13.3693 15.7073 13.1083 15.1456 12.389C14.9456 12.1252 14.7991 11.8249 14.7142 11.5049C14.6741 11.3631 14.6422 11.2188 14.6159 11.0737C14.6066 11.0219 14.5979 10.97 14.5901 10.918C14.5852 10.8867 14.5805 10.8553 14.576 10.8241C14.5743 10.8127 14.5571 10.6891 14.5644 10.7437C14.3416 9.09677 14.2564 7.42609 14.1488 5.76848C14.1227 5.36504 14.0973 4.96159 14.0726 4.55815C14.0394 4.19645 14.0574 3.83188 14.1261 3.47522C14.2655 2.83302 14.6323 2.26281 15.1589 1.86958C15.809 1.38424 16.6126 1.16973 17.4073 1.07828C18.3842 0.965904 19.3632 0.874688 20.3445 0.804638C22.3924 0.660791 24.4616 0.599824 26.5089 0.784831C28.1311 0.931347 29.902 1.17353 31.0107 2.49667C31.4799 3.08525 31.7782 3.79158 31.8729 4.53834C31.8972 4.62424 31.9544 4.6971 32.032 4.74117C32.1097 4.78523 32.2015 4.79695 32.2877 4.77378C32.3728 4.74816 32.4447 4.6908 32.4885 4.61359C32.5324 4.53638 32.5449 4.44524 32.5233 4.35909Z" fill="#C18F2C"/>
<path d="M26.6224 36.4222H34.1326C34.5664 36.4222 34.5671 35.7479 34.1326 35.7479H26.6224C26.1884 35.7479 26.1877 36.4222 26.6224 36.4222Z" fill="#C18F2C"/>
<path d="M15.8587 4.51994C15.9575 6.52519 16.1158 8.52762 16.3337 10.5272C16.3362 10.6159 16.3725 10.7002 16.4352 10.7629C16.4979 10.8255 16.5822 10.8619 16.6708 10.8644C16.76 10.8638 16.8455 10.8281 16.9086 10.765C16.9717 10.7019 17.0074 10.6165 17.0079 10.5272C16.7924 8.53099 16.634 6.52856 16.533 4.51994C16.5116 4.08798 15.8374 4.08545 15.8587 4.51994Z" fill="#C18F2C"/>
<path d="M11.0251 5.6828C10.8845 5.85529 10.7805 6.05458 10.7193 6.26854C10.6581 6.4825 10.6411 6.70667 10.6693 6.92741C10.7146 7.35656 10.8741 7.82041 11.2208 8.1008C11.2957 8.17229 11.3953 8.21217 11.4989 8.21217C11.6025 8.21217 11.7021 8.17229 11.7771 8.1008C11.9087 7.95738 11.9479 7.68275 11.7771 7.54452C11.7494 7.52257 11.723 7.49912 11.698 7.47428C11.6853 7.4615 11.6735 7.44773 11.6612 7.43467C11.6239 7.39562 11.6676 7.43116 11.6709 7.45026C11.6657 7.41893 11.6179 7.37342 11.6006 7.3449C11.581 7.31194 11.563 7.27818 11.5465 7.24362C11.542 7.23435 11.5162 7.17437 11.5368 7.22424C11.5575 7.2741 11.5333 7.213 11.5298 7.20345C11.5158 7.16678 11.5044 7.12956 11.4937 7.09205C11.483 7.05454 11.4738 7.01689 11.4656 6.97882C11.4617 6.96 11.4592 6.94062 11.4548 6.92263C11.4424 6.86953 11.4635 7.02097 11.4548 6.92825C11.4472 6.8518 11.4443 6.77496 11.446 6.69815C11.4472 6.6591 11.4503 6.62033 11.4535 6.58142C11.4587 6.51919 11.4611 6.59125 11.4507 6.59912C11.4573 6.59406 11.4592 6.55108 11.461 6.54195C11.4686 6.50449 11.4779 6.46703 11.4891 6.42957C11.4957 6.40681 11.5031 6.38433 11.5111 6.362C11.5159 6.34865 11.5443 6.29878 11.5175 6.34388C11.4906 6.38897 11.522 6.33826 11.5273 6.328C11.5358 6.31171 11.5448 6.29569 11.5543 6.27996C11.5637 6.26451 11.5748 6.2499 11.5839 6.2343C11.6096 6.19034 11.5235 6.30595 11.5808 6.2395C11.6546 6.16573 11.696 6.06568 11.696 5.96136C11.696 5.85704 11.6546 5.75699 11.5808 5.68322C11.507 5.60945 11.407 5.56801 11.3027 5.56801C11.1984 5.56801 11.0983 5.60945 11.0245 5.68322L11.0251 5.6828Z" fill="#C18F2C"/>
<path d="M8.93074 4.55029C8.33793 5.36912 8.15461 6.42873 8.29143 7.41599C8.41913 8.33793 8.81372 9.25004 9.56976 9.82262C9.73918 9.95087 10.0096 9.84931 10.1079 9.68144C10.1581 9.59086 10.1715 9.48445 10.1453 9.38426C10.1192 9.28406 10.0555 9.19778 9.96745 9.14328C9.41285 8.72311 9.14398 7.92577 9.05829 7.2588C8.94265 6.446 9.1402 5.61962 9.61092 4.94699C9.66282 4.8568 9.67718 4.74982 9.6509 4.64914C9.62462 4.54846 9.55981 4.46214 9.47045 4.40883C9.37992 4.35841 9.27343 4.34487 9.17317 4.37104C9.07291 4.39721 8.98662 4.46107 8.93228 4.5493L8.93074 4.55029Z" fill="#C18F2C"/>
<path d="M6.96113 3.23389C5.47321 5.12202 5.5176 7.93111 6.61163 9.99638C6.8945 10.5526 7.28717 11.0457 7.76592 11.4459C7.84113 11.5169 7.94064 11.5565 8.04406 11.5565C8.14748 11.5565 8.24698 11.5169 8.3222 11.4459C8.39526 11.3718 8.43621 11.2719 8.43621 11.1678C8.43621 11.0637 8.39526 10.9638 8.3222 10.8897C7.55057 10.2707 7.08138 9.34443 6.82332 8.40423C6.5426 7.39561 6.53189 6.33092 6.79228 5.31686C6.92766 4.7639 7.1744 4.24437 7.51741 3.79003C7.58822 3.71476 7.62765 3.6153 7.62765 3.51196C7.62765 3.40861 7.58822 3.30916 7.51741 3.23389C7.38087 3.09734 7.09332 3.06532 6.96113 3.23389Z" fill="#C18F2C"/>
</g>
<defs>
<clipPath id="clip0_516_9154">
<rect width="40" height="40" fill="white" transform="translate(0.333344)"/>
</clipPath>
</defs>
</svg>
