<svg width="36" height="37" viewBox="0 0 36 37" fill="none" xmlns="http://www.w3.org/2000/svg">
<rect x="0.5" y="1" width="35" height="35" rx="17.5" fill="url(#paint0_radial_124_8180)" fill-opacity="0.3"/>
<path d="M27.96 15.8333H26.6667V12.5C26.6667 12.3232 26.5964 12.1536 26.4714 12.0286C26.3464 11.9036 26.1768 11.8333 26 11.8333H10C9.82319 11.8333 9.65362 11.7631 9.5286 11.6381C9.40357 11.5131 9.33333 11.3435 9.33333 11.1667C9.33333 10.9899 9.40357 10.8203 9.5286 10.6953C9.65362 10.5702 9.82319 10.5 10 10.5H25.7333C25.9101 10.5 26.0797 10.4298 26.2047 10.3047C26.3298 10.1797 26.4 10.0102 26.4 9.83334C26.4 9.65653 26.3298 9.48696 26.2047 9.36194C26.0797 9.23691 25.9101 9.16668 25.7333 9.16668H10C9.7426 9.16137 9.48667 9.20683 9.24683 9.30045C9.007 9.39408 8.78797 9.53404 8.60224 9.71234C8.41651 9.89064 8.26773 10.1038 8.1644 10.3396C8.06106 10.5754 8.0052 10.8293 8 11.0867V25.0867C8.00087 25.4488 8.07318 25.8072 8.21277 26.1414C8.35236 26.4755 8.5565 26.7789 8.8135 27.034C9.0705 27.2891 9.3753 27.4911 9.71046 27.6282C10.0456 27.7654 10.4045 27.8351 10.7667 27.8333H26C26.1768 27.8333 26.3464 27.7631 26.4714 27.6381C26.5964 27.5131 26.6667 27.3435 26.6667 27.1667V23.8333H27.96C28.0441 23.8397 28.1287 23.8288 28.2085 23.8014C28.2883 23.7739 28.3616 23.7305 28.4241 23.6737C28.4865 23.6169 28.5366 23.5479 28.5715 23.4711C28.6063 23.3942 28.6251 23.311 28.6267 23.2267V16.56C28.6289 16.3768 28.5611 16.1996 28.4373 16.0646C28.3134 15.9296 28.1427 15.8469 27.96 15.8333ZM27.3333 22.5H21.6133C20.9301 22.4757 20.2845 22.1812 19.8182 21.6812C19.352 21.1812 19.1033 20.5166 19.1267 19.8333C19.1033 19.1501 19.352 18.4855 19.8182 17.9855C20.2845 17.4855 20.9301 17.191 21.6133 17.1667H27.3333V22.5Z" fill="white"/>
<path d="M22.0266 20.78C22.5789 20.78 23.0266 20.3323 23.0266 19.78C23.0266 19.2277 22.5789 18.78 22.0266 18.78C21.4743 18.78 21.0266 19.2277 21.0266 19.78C21.0266 20.3323 21.4743 20.78 22.0266 20.78Z" fill="white"/>
<rect x="0.5" y="1" width="35" height="35" rx="17.5" stroke="#C18F2C"/>
<defs>
<radialGradient id="paint0_radial_124_8180" cx="0" cy="0" r="1" gradientUnits="userSpaceOnUse" gradientTransform="translate(18 18.5) rotate(90) scale(17)">
<stop stop-color="#DBE466"/>
<stop offset="1" stop-color="#BF8D2C"/>
</radialGradient>
</defs>
</svg>
